<svg width="1234" height="478" viewBox="0 0 1234 478" fill="none" xmlns="http://www.w3.org/2000/svg">
<path d="M1182.77 219.612C1171.78 204.789 1159.67 191.086 1146.58 178.662C1143.54 175.911 1140.32 173.419 1136.95 171.207C1110.27 153.136 1079.76 143.632 1048.7 143.709H417.158C417.158 72.8352 461.072 15.3184 398.642 15.3184C374.219 15.3201 350.453 24.3023 330.899 40.9215C311.345 57.5407 297.053 80.9036 290.161 107.516C279.054 103.704 267.511 101.775 255.907 101.791C200.515 101.791 154.921 144.793 149.185 199.999C148.344 208.814 146.658 217.497 144.157 225.896C133.659 260.066 114.807 290.131 89.8074 312.571C64.8079 335.01 34.6965 348.894 3 352.596L23.2261 369.811L6.65422 393.274C39.9431 389.388 71.8764 376.247 99.6312 355.013C127.386 333.779 150.107 305.106 165.787 271.527C169.92 278.047 174.653 284.049 179.905 289.43C174.933 301.78 168.868 313.523 161.803 324.478C149.192 343.969 133.663 360.792 115.927 374.179C136.158 364.385 154.718 350.633 170.761 333.549C179.685 324.04 187.784 313.578 194.947 302.31C213.261 315.143 234.377 321.884 255.895 321.766C265.911 321.777 275.886 320.344 285.584 317.5V477H358.868V353.823H377.21V477H450.494V353.823H971.783V477H1045.07V353.823H1063.67V477H1136.95V198.807C1136.95 197.825 1136.95 196.851 1136.88 195.883C1150.07 205.694 1162.49 216.767 1174.02 228.983C1198.09 254.557 1218.04 284.714 1232.96 318.093C1221.4 282.192 1204.4 248.864 1182.73 219.612" fill="black"/>
<path d="M1182.77 219.612C1171.78 204.789 1159.67 191.086 1146.58 178.662C1143.54 175.911 1140.32 173.419 1136.95 171.207C1110.27 153.136 1079.76 143.632 1048.7 143.709H417.158C417.158 72.8352 461.072 15.3184 398.642 15.3184C374.219 15.3201 350.453 24.3023 330.899 40.9215C311.345 57.5407 297.053 80.9036 290.161 107.516C279.054 103.704 267.511 101.775 255.907 101.791C200.515 101.791 154.921 144.793 149.185 199.999C148.344 208.814 146.658 217.497 144.157 225.896C133.659 260.066 114.807 290.131 89.8074 312.571C64.8079 335.01 34.6965 348.894 3 352.596L23.2261 369.811L6.65422 393.274C39.9431 389.388 71.8764 376.247 99.6312 355.013C127.386 333.779 150.107 305.106 165.787 271.527C169.92 278.047 174.653 284.049 179.905 289.43C174.933 301.78 168.868 313.523 161.803 324.478C149.192 343.969 133.663 360.792 115.927 374.179C136.158 364.385 154.718 350.633 170.761 333.549C179.685 324.04 187.784 313.578 194.947 302.31C213.261 315.143 234.377 321.884 255.895 321.766C265.911 321.777 275.886 320.344 285.584 317.5V477H358.868V353.823H377.21V477H450.494V353.823H971.783V477H1045.07V353.823H1063.67V477H1136.95V198.807C1136.95 197.825 1136.95 196.851 1136.88 195.883C1150.07 205.694 1162.49 216.767 1174.02 228.983C1198.09 254.557 1218.04 284.714 1232.96 318.093C1221.41 282.195 1204.42 248.867 1182.77 219.612V219.612Z" stroke="black" stroke-width="2"/>
<path d="M1182.77 205.349C1171.78 190.523 1159.67 176.821 1146.58 164.398C1143.53 161.634 1140.31 159.129 1136.93 156.902C1110.26 138.833 1079.76 129.326 1048.7 129.398H417.158C417.158 58.4828 461.072 1 398.642 1C374.219 1.0017 350.453 9.98392 330.899 26.6031C311.345 43.2223 297.053 66.5853 290.161 93.1974C279.053 89.3875 267.511 87.4609 255.907 87.4798C200.515 87.4798 154.921 130.481 149.185 185.688C148.344 194.502 146.658 203.186 144.157 211.584C133.662 245.756 114.81 275.823 89.8103 298.263C64.8103 320.703 34.6974 334.585 3 338.285L23.2261 355.506L6.65422 378.962C39.9396 375.084 71.8708 361.951 99.6257 340.725C127.38 319.5 150.104 290.834 165.787 257.264C169.922 263.782 174.654 269.783 179.905 275.166C174.933 287.514 168.868 299.255 161.803 310.208C149.195 329.702 133.667 346.525 115.927 359.908C136.159 350.117 154.719 336.365 170.761 319.278C179.685 309.771 187.784 299.312 194.947 288.046C213.262 300.875 234.378 307.613 255.895 307.496C265.91 307.506 275.886 306.073 285.583 303.229V462.737H358.868V339.552H377.21V462.737H450.494V339.552H971.783V462.737H1045.07V339.552H1063.67V462.737H1136.95V184.536C1136.95 183.555 1136.95 182.58 1136.88 181.613C1150.07 191.426 1162.49 202.501 1174.02 214.719C1198.1 240.299 1218.07 270.466 1233 303.856C1221.44 267.958 1204.44 234.631 1182.77 205.383" fill="#DDEBFF"/>
<path d="M1182.77 205.349C1171.78 190.523 1159.67 176.821 1146.58 164.398C1143.53 161.634 1140.31 159.129 1136.93 156.902C1110.26 138.833 1079.76 129.326 1048.7 129.398H417.158C417.158 58.4828 461.072 1 398.642 1C374.219 1.0017 350.453 9.98392 330.899 26.6031C311.345 43.2223 297.053 66.5853 290.161 93.1974C279.053 89.3875 267.511 87.4609 255.907 87.4798C200.515 87.4798 154.921 130.481 149.185 185.688C148.344 194.502 146.658 203.186 144.157 211.584C133.662 245.756 114.81 275.823 89.8103 298.263C64.8103 320.703 34.6974 334.585 3 338.285L23.2261 355.506L6.65422 378.962C39.9396 375.084 71.8708 361.951 99.6257 340.725C127.38 319.5 150.104 290.834 165.787 257.264C169.922 263.782 174.654 269.783 179.905 275.166C174.933 287.514 168.868 299.255 161.803 310.208C149.195 329.702 133.667 346.525 115.927 359.908C136.159 350.117 154.719 336.365 170.761 319.278C179.685 309.771 187.784 299.312 194.947 288.046C213.262 300.875 234.378 307.613 255.895 307.496C265.91 307.506 275.886 306.073 285.583 303.229V462.737H358.868V339.552H377.21V462.737H450.494V339.552H971.783V462.737H1045.07V339.552H1063.67V462.737H1136.95V184.536C1136.95 183.555 1136.95 182.58 1136.88 181.613C1150.07 191.426 1162.49 202.501 1174.02 214.719C1198.1 240.299 1218.07 270.466 1233 303.856C1221.44 267.946 1204.44 234.608 1182.77 205.349V205.349Z" stroke="black" stroke-width="2"/>
</svg>
