<svg width="404" height="109" viewBox="0 0 404 109" fill="none" xmlns="http://www.w3.org/2000/svg">
<path d="M402.627 60.2566C402.627 86.594 312.721 107.949 201.814 107.949C90.9062 107.949 1 86.594 1 60.2566C1 33.9191 90.9122 12.5645 201.814 12.5645C312.715 12.5645 402.627 33.9191 402.627 60.2566Z" fill="black"/>
<path d="M201.814 107.949C312.72 107.949 402.627 86.5962 402.627 60.2566C402.627 33.917 312.72 12.5645 201.814 12.5645C90.9073 12.5645 1 33.917 1 60.2566C1 86.5962 90.9073 107.949 201.814 107.949Z" stroke="black" stroke-width="2"/>
<path d="M402.627 48.6918C402.627 75.0352 312.721 96.3838 201.814 96.3838C90.9062 96.3838 1 75.0352 1 48.6918C1 22.3483 90.9122 1.00586 201.814 1.00586C312.715 1.00586 402.627 22.3544 402.627 48.6918Z" fill="#0078BF"/>
<path d="M201.814 96.385C312.72 96.385 402.627 75.0323 402.627 48.6925C402.627 22.3526 312.72 1 201.814 1C90.9073 1 1 22.3526 1 48.6925C1 75.0323 90.9073 96.385 201.814 96.385Z" stroke="black" stroke-width="2"/>
<path d="M52.9893 59.8771C51.47 59.8725 49.9667 59.561 48.5664 58.9607C47.166 58.3604 45.8964 57.4832 44.831 56.3799C43.7656 55.2766 42.9256 53.9691 42.3595 52.533C41.7934 51.0969 41.5125 49.5607 41.533 48.0133C41.533 41.6068 46.192 36.1495 52.7564 36.1495C58.3053 36.1495 61.0052 39.6113 61.0052 39.6113L64.8279 35.8148C64.8279 35.8148 60.7722 30.832 52.7564 30.832C43.1995 30.832 35.8467 38.1876 35.8467 48.0133C35.8467 57.839 43.4385 65.1885 52.9893 65.1885C60.9096 65.1885 65.0608 61.0148 65.0608 61.0148V45.9265H52.1531V51.2378H59.5597V58.2649C59.5597 58.2649 57.6483 59.8771 52.9893 59.8771Z" fill="white" stroke="black"/>
<path d="M76.9892 36.8072H91.1513V31.3984H71.3984V64.6116H91.432V59.2028H76.9892V50.2835H90.0344V44.8747H76.9892V36.8072Z" fill="white" stroke="black"/>
<path d="M103.497 64.6116H109.088V36.8072H118.077V31.3984H94.502V36.8072H103.497V64.6116Z" fill="white" stroke="black"/>
<path d="M149.149 38.5711L154.041 51.5236H144.257L149.149 38.5711ZM133.619 64.6221H139.258L142.244 56.7435H156.036L159.022 64.6221H164.661L151.986 31.4043H146.306L133.619 64.6221Z" fill="white" stroke="black"/>
<path d="M199.329 55.9373C199.329 58.6444 196.438 59.782 193.643 59.782C188.703 59.782 185.908 54.7997 185.908 54.7997L181.727 58.4072C181.727 58.4072 185.502 65.1902 193.673 65.1902C199.825 65.1902 205.021 61.966 205.021 55.9373C205.021 49.9086 200.876 47.6334 195.895 45.7354C191.421 44.032 188.858 43.1256 188.858 40.2603C188.858 38.0276 191.044 36.2695 193.84 36.2695C197.895 36.2695 200.595 40.023 200.595 40.023L204.466 36.1296C204.466 36.1296 200.643 30.8613 193.84 30.8613C187.269 30.8613 183.172 35.5578 183.172 40.2603C183.172 46.4289 188.548 49.0812 193.374 50.7907C197.233 52.1412 199.329 53.1389 199.329 55.9373Z" fill="white" stroke="black"/>
<path d="M253.373 31.3984H247.549L240.465 51.3304L233.202 31.3984H228.585L221.179 51.3304L214.286 31.3984H207.948L220.808 65.7561L230.729 40.8412L240.513 65.7561L253.373 31.3984Z" fill="white" stroke="black"/>
<path d="M266.46 38.5715L271.351 51.5244H261.568L266.46 38.5715ZM250.93 64.6233H256.568L259.555 56.7445H273.347L276.333 64.6233H281.972L269.279 31.3984H263.598L250.93 64.6233Z" fill="white" stroke="black"/>
<path d="M290.645 64.6116H296.236V36.8072H305.225V31.3984H281.649V36.8072H290.645V64.6116Z" fill="white" stroke="black"/>
<path d="M323.532 59.8761C317.105 59.8761 312.679 54.4005 312.679 48.0123C312.679 41.6241 317.105 36.1485 323.532 36.1485C325.088 36.1384 326.629 36.4576 328.057 37.086C329.485 37.7144 330.77 38.6383 331.829 39.7989L335.604 36.0512C334.055 34.3795 332.182 33.0526 330.105 32.1542C328.027 31.2558 325.789 30.8053 323.532 30.8311C314.125 30.8311 306.993 38.1867 306.993 48.0123C306.993 57.8379 314.125 65.1874 323.532 65.1874C325.899 65.2208 328.245 64.7336 330.409 63.7593C332.574 62.7849 334.507 61.3462 336.076 59.5414L332.349 55.7937C331.254 57.0804 329.9 58.1112 328.378 58.8157C326.857 59.5203 325.204 59.882 323.532 59.8761Z" fill="white" stroke="black"/>
<path d="M360.344 44.9173H346.409V31.3984H340.818V64.6116H346.409V50.3322H360.344V64.6116H365.929V31.3984H360.344V44.9173Z" fill="white" stroke="black"/>
</svg>
