<svg width="287" height="149" viewBox="0 0 287 149" fill="none" xmlns="http://www.w3.org/2000/svg">
<path d="M287 148.032C191.331 129.621 95.6646 129.621 0 148.032C38.2667 101.995 38.2667 55.9604 0 9.92773C95.6687 28.3464 191.335 28.3464 287 9.92773C248.729 55.9604 248.729 101.995 287 148.032Z" fill="black"/>
<path d="M287 138.104C191.331 119.693 95.6646 119.693 0 138.104C38.2667 92.0712 38.2667 46.0366 0 0C95.6687 18.4106 191.335 18.4106 287 0C248.729 46.0326 248.729 92.0672 287 138.104Z" fill="#FF7C33"/>
<path d="M118.477 56.2609C116.891 56.257 115.322 55.9512 113.861 55.3612C112.399 54.7711 111.074 53.9085 109.961 52.8233C108.849 51.7381 107.972 50.4517 107.381 49.0389C106.79 47.626 106.497 46.1146 106.519 44.5921C106.519 38.291 111.379 32.9233 118.234 32.9233C124.017 32.9233 126.834 36.3282 126.834 36.3282L130.822 32.5942C130.822 32.5942 126.591 27.6934 118.234 27.6934C108.263 27.6934 100.586 34.928 100.586 44.5921C100.586 54.2562 108.513 61.4849 118.477 61.4849C126.74 61.4849 131.065 57.3799 131.065 57.3799V42.5575H117.598V47.7816H125.326V54.6931C125.326 54.6931 123.35 56.2609 118.477 56.2609Z" fill="white" stroke="black"/>
<path d="M143.51 33.5834H158.285V28.2637H137.677V60.9302H158.578V55.6104H143.51V46.8379H157.12V41.5182H143.51V33.5834Z" fill="white" stroke="black"/>
<path d="M171.166 60.9302H176.999V33.5834H186.378V28.2637H161.781V33.5834H171.166V60.9302Z" fill="white" stroke="black"/>
<path d="M53.8293 83.1799L58.933 95.9195H48.7256L53.8293 83.1799ZM37.627 108.803H43.5096L46.6255 101.024H61.0332L64.149 108.803H70.0317L56.8143 76.1309H50.8817L37.627 108.803Z" fill="white" stroke="black"/>
<path d="M104.381 97.616L110.257 102.565C108.487 103.553 106.472 104.068 104.424 104.055C97.6193 104.055 93.1513 98.7829 93.1513 92.4818C93.1513 86.1807 97.6193 80.9028 104.424 80.9028C111.229 80.9028 115.704 86.1807 115.704 92.4818C115.731 94.614 115.195 96.7179 114.146 98.5974L108.12 93.5529L104.381 97.616ZM104.424 75.583C94.5097 75.583 87.2188 82.8177 87.2188 92.4818C87.2188 102.146 94.5097 109.375 104.424 109.375C108.106 109.428 111.705 108.332 114.682 106.251L119.667 110.404L123.406 106.299L118.595 102.331C120.589 99.4051 121.638 95.9786 121.611 92.4818C121.636 82.8177 114.345 75.583 104.424 75.583Z" fill="white" stroke="black"/>
<path d="M148.513 96.2541C148.513 100.921 146.021 104.033 141.222 104.033C136.424 104.033 133.931 100.909 133.931 96.2541V76.1367H128.099V96.9422C128.099 104.123 133.202 109.353 141.222 109.353C149.243 109.353 154.346 104.129 154.346 96.9422V76.1367H148.513V96.2541Z" fill="white" stroke="black"/>
<path d="M177.285 104.055C170.43 104.055 166.012 98.7829 166.012 92.4818C166.012 86.1807 170.436 80.9028 177.285 80.9028C184.133 80.9028 188.564 86.1807 188.564 92.4818C188.564 98.7829 184.14 104.055 177.285 104.055ZM177.285 75.583C167.37 75.583 160.079 82.8177 160.079 92.4818C160.079 102.146 167.37 109.375 177.285 109.375C187.199 109.375 194.497 102.14 194.497 92.4818C194.497 82.8236 187.206 75.583 177.285 75.583Z" fill="white" stroke="black"/>
<path d="M205.721 108.803H211.553V81.4564H220.938V76.1367H196.342V81.4564H205.721V108.803Z" fill="white" stroke="black"/>
<path d="M231.532 81.4564H246.307V76.1367H225.699V108.803H246.6V103.483H231.532V94.7107H245.142V89.391H231.532V81.4564Z" fill="white" stroke="black"/>
</svg>
