<svg width="279" height="154" viewBox="0 0 279 154" fill="none" xmlns="http://www.w3.org/2000/svg">
<path d="M276.873 110.988L243.082 71.1514V89.38H182.265V71.7741H205.899L139.439 11.8193L72.9743 71.7741H96.6132V89.38H35.7915V71.1514L2 110.988L35.7915 150.83V132.596H96.6132H125.953H152.926H182.265H243.082V150.83L276.873 110.988Z" fill="black"/>
<path d="M276.873 110.988L243.082 71.1514V89.38H182.265V71.7741H205.899L139.439 11.8193L72.9743 71.7741H96.6132V89.38H35.7915V71.1514L2 110.988L35.7915 150.83V132.596H96.6132H125.953H152.926H182.265H243.082V150.83L276.873 110.988Z" stroke="black" stroke-width="2"/>
<path d="M276.873 101.169L243.082 61.332V79.5606H182.265V61.9547H205.899L139.439 2L72.9743 61.9547H96.6132V79.5606H35.7915V61.332L2 101.169L35.7915 141.005V122.777H96.6132H125.953H152.926H182.265H243.082V141.005L276.873 101.169Z" fill="#0078BF"/>
<path d="M276.873 101.169L243.082 61.332V79.5606H182.265V61.9547H205.899L139.439 2L72.9743 61.9547H96.6132V79.5606H35.7915V61.332L2 101.169L35.7915 141.005V122.777H96.6132H125.953H152.926H182.265H243.082V141.005L276.873 101.169Z" stroke="black" stroke-width="2"/>
<path d="M121.481 65.0846C120.288 65.0812 119.107 64.8368 118.007 64.3657C116.908 63.8946 115.911 63.206 115.074 62.3399C114.237 61.4737 113.577 60.4471 113.132 59.3195C112.688 58.192 112.467 56.9858 112.483 55.7707C112.483 50.7412 116.14 46.4568 121.298 46.4568C125.65 46.4568 127.772 49.1765 127.772 49.1765L130.771 46.196C130.771 46.196 127.589 42.2842 121.298 42.2842C113.8 42.2842 108.021 48.0588 108.021 55.7707C108.021 63.4826 113.982 69.2572 121.481 69.2572C127.699 69.2572 130.954 65.9787 130.954 65.9787V54.1314H120.822V58.304H126.638V63.8392C126.638 63.8392 125.138 65.0846 121.481 65.0846Z" fill="white" stroke="black" stroke-width="0.5"/>
<path d="M140.317 46.9639H151.436V42.7168H135.928V68.7954H151.656V64.5483H140.317V57.5443H150.558V53.2972H140.317V46.9639Z" fill="white" stroke="black" stroke-width="0.5"/>
<path d="M161.13 68.7954H165.519V46.9639H172.578V42.7168H154.07V46.9639H161.13V68.7954Z" fill="white" stroke="black" stroke-width="0.5"/>
<path d="M44.9461 109.259H40.9959V91.6969H44.9461C49.9206 91.6969 53.0662 95.7202 53.0662 100.489C53.0662 105.257 49.9206 109.259 44.9461 109.259ZM44.873 87.4393H36.6328V113.517H44.8992C52.3608 113.517 57.5547 108.003 57.5547 100.478C57.5547 92.9528 52.3347 87.4287 44.873 87.4287V87.4393Z" fill="white" stroke="black" stroke-width="0.5"/>
<path d="M66.7456 87.4238H62.3564V113.502H66.7456V87.4238Z" fill="white" stroke="black" stroke-width="0.5"/>
<path d="M80.9013 99.4246H77.4266V91.6758H80.9013C83.7177 91.6758 85.4733 92.9797 85.4733 95.5502C85.4733 98.1207 83.7177 99.4246 80.9013 99.4246ZM73.0635 113.506H77.4527V103.671H79.4644L85.5361 113.506H90.6567L84.2558 103.395C87.9135 102.463 89.9619 99.4831 89.9619 95.5715C89.9619 90.7817 86.5602 87.4502 81.4761 87.4502H73.0635V113.506Z" fill="white" stroke="black" stroke-width="0.5"/>
<path d="M99.1157 91.6709H110.235V87.4238H94.7266V113.502H110.454V109.255H99.1157V102.251H109.357V98.0042H99.1157V91.6709Z" fill="white" stroke="black" stroke-width="0.5"/>
<path d="M126.585 109.79C121.537 109.79 118.057 105.506 118.057 100.477C118.057 95.4471 121.537 91.1627 126.585 91.1627C127.806 91.1548 129.015 91.4057 130.136 91.8996C131.257 92.3935 132.265 93.1194 133.095 94.0314L136.058 91.0882C134.842 89.7759 133.373 88.7343 131.742 88.029C130.112 87.3236 128.356 86.9699 126.585 86.9901C119.191 86.9901 113.595 92.7647 113.595 100.477C113.595 108.188 119.191 113.963 126.585 113.963C128.44 113.989 130.28 113.606 131.977 112.841C133.674 112.076 135.189 110.946 136.418 109.53L133.492 106.586C132.635 107.595 131.574 108.403 130.382 108.956C129.19 109.509 127.894 109.794 126.585 109.79Z" fill="white" stroke="black" stroke-width="0.5"/>
<path d="M145.02 113.502H149.409V91.6709H156.469V87.4238H137.961V91.6709H145.02V113.502Z" fill="white" stroke="black" stroke-width="0.5"/>
<path d="M164.954 87.4238H160.564V113.502H164.954V87.4238Z" fill="white" stroke="black" stroke-width="0.5"/>
<path d="M182.725 109.717C177.568 109.717 174.24 105.507 174.24 100.477C174.24 95.4475 177.568 91.2375 182.725 91.2375C187.883 91.2375 191.211 95.4475 191.211 100.477C191.211 105.507 187.883 109.717 182.725 109.717ZM182.725 86.9902C175.264 86.9902 169.777 92.765 169.777 100.477C169.777 108.189 175.264 113.964 182.725 113.964C190.187 113.964 195.674 108.189 195.674 100.477C195.674 92.765 190.187 86.9902 182.725 86.9902Z" fill="white" stroke="black" stroke-width="0.5"/>
<path d="M199.994 87.4238V113.502H204.383V95.5826L217.185 113.502H221.135V87.4238H216.746V105.381L203.944 87.4238H199.994Z" fill="white" stroke="black" stroke-width="0.5"/>
<path d="M239.712 106.698C239.712 108.827 237.444 109.715 235.249 109.715C231.372 109.715 229.178 105.804 229.178 105.804L225.886 108.635C225.886 108.635 228.849 113.957 235.249 113.957C240.078 113.957 244.174 111.424 244.174 106.692C244.174 101.961 240.919 100.173 237.005 98.709C233.494 97.3678 231.482 96.66 231.482 94.3874C231.482 92.6364 233.201 91.2579 235.396 91.2579C238.578 91.2579 240.699 94.2011 240.699 94.2011L243.735 91.1461C242.722 89.8773 241.449 88.8497 240.005 88.1353C238.56 87.4209 236.98 87.0371 235.375 87.0107C230.218 87.0107 227.014 90.6991 227.014 94.3874C227.014 99.2306 231.257 101.306 235.025 102.658C238.066 103.717 239.712 104.5 239.712 106.698Z" fill="white" stroke="black" stroke-width="0.5"/>
</svg>
