<svg width="302" height="149" viewBox="0 0 302 149" fill="none" xmlns="http://www.w3.org/2000/svg">
<path d="M301 128.805C200.985 63.4429 101.015 194.167 1 128.805V19.8683C101.015 85.2302 200.985 -45.4935 301 19.8683V128.805Z" fill="url(#paint0_linear)" stroke="black" stroke-width="2"/>
<path d="M25.8081 30.8535C28.6856 32.8008 31.5195 34.5644 34.397 36.181C23.4538 45.0725 19.6607 55.3969 23.0178 69.873C19.8787 68.3299 16.7396 66.6031 13.6442 64.6557C10.0255 49.0773 14.0801 38.9734 25.8081 30.8535Z" fill="white"/>
<path d="M25.8081 30.8535C28.6856 32.8008 31.5195 34.5644 34.397 36.181C23.4538 45.0725 19.6607 55.3969 23.0178 69.873C19.8787 68.3299 16.7396 66.603 13.6442 64.6557C10.0255 49.0773 14.0801 38.9734 25.8081 30.8535Z" stroke="black"/>
<path d="M53.6673 44.8156C55.6728 54.6253 62.0818 63.9206 70.845 71.6729C71.3246 64.435 73.9405 57.3808 78.6927 50.1062C81.5702 50.3634 84.4041 50.5471 87.2816 50.6206C81.1342 61.0916 78.9979 71.1953 80.9163 81.4091C78.0824 81.5561 75.2921 81.5928 72.4582 81.5561C61.8638 74.208 52.9261 64.8759 47.7379 54.7723C44.0321 61.8999 43.1601 69.6154 45.0784 78.0657C41.9394 77.2574 38.8003 76.3389 35.7048 75.2367C32.6529 62.0469 36.0972 51.6126 45.994 41.9131C48.5227 42.9786 51.095 43.9706 53.6673 44.8156Z" fill="white"/>
<path d="M53.6673 44.8156C55.6728 54.6253 62.0818 63.9206 70.845 71.6729C71.3246 64.435 73.9405 57.3808 78.6927 50.1062C81.5702 50.3634 84.4041 50.5471 87.2816 50.6206C81.1342 61.0916 78.9979 71.1953 80.9163 81.4091C78.0824 81.5561 75.2921 81.5928 72.4582 81.5561C61.8638 74.208 52.9261 64.8759 47.7379 54.7723C44.0321 61.8999 43.1601 69.6154 45.0784 78.0657C41.9394 77.2574 38.8003 76.3389 35.7048 75.2367C32.6529 62.0469 36.0972 51.6126 45.994 41.9131C48.5227 42.9786 51.095 43.9706 53.6673 44.8156Z" stroke="black"/>
<path d="M102.236 63.1487C109.517 57.9315 117.103 52.4572 124.297 46.9829C127.872 46.2481 131.447 45.4765 135.022 44.5947C127.611 50.6937 119.589 56.8661 111.872 62.8548C119.24 66.2716 127.567 68.8802 135.851 71.2683C131.709 72.4073 127.567 73.5095 123.425 74.5383C115.883 72.1869 108.471 69.4681 101.844 66.0512C101.277 70.4601 101.321 74.7954 101.931 79.0941C98.7921 79.6085 95.6531 80.0493 92.5576 80.4167C90.9445 70.6438 92.7756 60.7238 97.9202 50.4365C100.798 50.2895 103.632 50.0691 106.509 49.7384C104.46 54.2942 103.065 58.7398 102.236 63.1487Z" fill="white"/>
<path d="M102.236 63.1487C109.517 57.9315 117.103 52.4572 124.297 46.9829C127.872 46.2481 131.447 45.4765 135.022 44.5947C127.611 50.6937 119.589 56.8661 111.872 62.8548C119.24 66.2716 127.567 68.8802 135.851 71.2683C131.709 72.4073 127.567 73.5095 123.425 74.5383C115.883 72.1869 108.471 69.4681 101.844 66.0512C101.277 70.4601 101.321 74.7954 101.931 79.0941C98.7921 79.6085 95.6531 80.0493 92.5576 80.4167C90.9445 70.6438 92.7756 60.7238 97.9202 50.4365C100.798 50.2895 103.632 50.0691 106.509 49.7384C104.46 54.2942 103.065 58.7398 102.236 63.1487Z" stroke="black"/>
<path d="M158.957 53.2297C150.848 54.2585 141.78 54.6627 142.216 49.6659C142.608 45.8448 149.409 40.4071 159.262 37.4678C169.508 34.3448 176.266 36.4023 176.309 36.4023C174.435 37.9822 172.516 39.5988 170.511 41.2154C170.511 41.2154 165.846 39.6723 159.437 41.5828C155.033 42.9055 151.502 45.2937 151.415 47.0572C151.371 49.3352 155.557 48.8576 163.056 47.9758C171.383 47.0205 178.577 46.8001 178.664 51.7601C178.664 56.7569 169.595 61.9006 159.35 64.9134C145.703 68.9182 139.164 65.1339 139.207 65.1339C141.562 63.4805 143.916 61.8272 146.314 60.1738C146.314 60.1738 151.066 62.8927 159.393 60.431C164.102 59.0348 169.028 56.6834 169.028 54.4789C169.072 52.201 165.497 52.4214 158.957 53.2297Z" fill="white"/>
<path d="M158.957 53.2297C150.848 54.2585 141.78 54.6627 142.216 49.6659C142.608 45.8448 149.409 40.4071 159.262 37.4678C169.508 34.3448 176.266 36.4023 176.309 36.4023C174.435 37.9822 172.516 39.5988 170.511 41.2154C170.511 41.2154 165.846 39.6723 159.437 41.5828C155.033 42.9055 151.502 45.2937 151.415 47.0572C151.371 49.3352 155.557 48.8576 163.056 47.9758C171.383 47.0205 178.577 46.8001 178.664 51.7601C178.664 56.7569 169.595 61.9006 159.35 64.9134C145.703 68.9182 139.164 65.1339 139.207 65.1339C141.562 63.4805 143.916 61.8272 146.314 60.1738C146.314 60.1738 151.066 62.8927 159.393 60.431C164.102 59.0348 169.028 56.6834 169.028 54.4789C169.072 52.201 165.497 52.4214 158.957 53.2297Z" stroke="black"/>
<path d="M220.867 20.7C223.788 20.1121 226.665 19.5977 229.586 19.1201C242.84 28.0849 253.435 40.2093 257.925 52.4073C254.786 51.7827 251.603 51.305 248.464 50.9744C247.374 48.2556 245.936 45.5735 244.235 42.9649C236.431 42.5975 228.671 42.9281 220.867 43.7732C219.166 46.3083 217.292 48.8801 215.286 51.4887C212.147 51.8929 208.964 52.3705 205.825 52.8849C214.196 41.7157 220.387 31.3548 220.867 20.7ZM224.006 38.7397C229.499 38.1518 234.992 37.8212 240.529 37.8579C237.216 33.7062 233.249 29.8117 228.802 26.2478C227.93 30.4363 226.273 34.588 224.006 38.7397Z" fill="white"/>
<path d="M220.867 20.7C223.788 20.1121 226.665 19.5977 229.586 19.1201C242.84 28.0849 253.435 40.2093 257.925 52.4073C254.786 51.7827 251.603 51.305 248.464 50.9744C247.374 48.2556 245.936 45.5735 244.235 42.9649C236.431 42.5975 228.671 42.9281 220.867 43.7732C219.166 46.3083 217.292 48.8801 215.286 51.4887C212.147 51.8929 208.964 52.3705 205.825 52.8849C214.196 41.7157 220.387 31.3548 220.867 20.7ZM224.006 38.7397C229.499 38.1518 234.992 37.8212 240.529 37.8579C237.216 33.7062 233.249 29.8117 228.802 26.2478C227.93 30.4363 226.273 34.588 224.006 38.7397Z" stroke="black"/>
<path d="M265.86 24.2041C261.064 23.5428 256.312 23.2121 251.516 23.1386C250.426 21.1547 249.206 19.1707 247.811 17.1867C259.887 16.5989 271.92 17.5174 283.997 20.6403C285.915 23.8 287.616 26.8861 289.098 29.9356C284.302 28.1721 279.55 26.8127 274.754 25.7472C281.643 38.9737 283.735 50.6203 281.032 59.6217C277.893 58.2623 274.754 57.0499 271.659 55.9844C274.187 47.0198 272.226 36.1447 265.86 24.2041Z" fill="white"/>
<path d="M265.86 24.2041C261.064 23.5428 256.312 23.2121 251.516 23.1386C250.426 21.1547 249.206 19.1707 247.811 17.1867C259.887 16.5989 271.92 17.5174 283.997 20.6403C285.915 23.8 287.616 26.8861 289.098 29.9356C284.302 28.1721 279.55 26.8127 274.754 25.7472C281.643 38.9737 283.735 50.6203 281.032 59.6217C277.893 58.2623 274.754 57.0499 271.659 55.9844C274.187 47.0198 272.226 36.1447 265.86 24.2041Z" stroke="black"/>
<path d="M49.0458 89.9331C52.0541 90.4475 55.0624 90.8516 58.0707 91.1455C62.2125 99.3387 68.9267 107.716 78.2567 115.211C86.6276 121.934 89.0691 126.6 82.1806 128.841C75.6408 131.156 61.3842 124.984 61.4714 124.726C60.861 123 60.4686 121.346 60.2506 119.73C60.207 119.803 68.8831 124.065 72.7633 123.22C77.6028 122.265 74.7689 119.068 71.4118 116.35C55.978 104.482 48.8279 89.7127 49.0458 89.9331Z" fill="white"/>
<path d="M49.0458 89.9331C52.0541 90.4475 55.0624 90.8516 58.0707 91.1455C62.2125 99.3387 68.9267 107.716 78.2567 115.211C86.6276 121.934 89.0691 126.6 82.1806 128.841C75.6408 131.156 61.3842 124.984 61.4714 124.726C60.861 123 60.4686 121.346 60.2506 119.73C60.207 119.803 68.8831 124.065 72.7633 123.22C77.6028 122.265 74.7689 119.068 71.4118 116.35C55.978 104.482 48.8279 89.7127 49.0458 89.9331Z" stroke="black"/>
<path d="M100.666 88.6831C103.675 88.132 106.683 87.5441 109.691 86.8828C111.479 92.7613 114.313 98.5296 118.193 104.077C121.855 109.883 120.896 115.577 113.397 118.37C106.029 121.199 93.2547 118.957 85.3199 112.124C77.9517 105.694 72.5891 98.6766 69.1885 91.6591C72.1968 91.6958 75.205 91.5856 78.2133 91.4387C78.2569 91.3652 81.832 100.55 91.9904 110.066C96.4374 114.181 102.803 115.945 108.035 114.291C113.266 112.638 113.441 109.368 110.432 105.584C103.239 96.8396 100.71 88.6464 100.666 88.6831Z" fill="white"/>
<path d="M100.666 88.6831C103.675 88.132 106.683 87.5441 109.691 86.8828C111.479 92.7613 114.313 98.5296 118.193 104.077C121.855 109.883 120.896 115.577 113.397 118.37C106.029 121.199 93.2547 118.957 85.3199 112.124C77.9517 105.694 72.5891 98.6766 69.1885 91.6591C72.1968 91.6958 75.205 91.5856 78.2133 91.4387C78.2569 91.3652 81.832 100.55 91.9904 110.066C96.4374 114.181 102.803 115.945 108.035 114.291C113.266 112.638 113.441 109.368 110.432 105.584C103.239 96.8396 100.71 88.6464 100.666 88.6831Z" stroke="black"/>
<path d="M129.136 82.034C135.632 85.0467 141.997 87.986 147.447 91.2559C151.851 85.01 157.388 78.5804 163.361 72.1141C166.151 71.3058 168.898 70.5342 171.688 69.7627C170.641 79.5357 168.636 89.8597 165.715 100.845C163.797 101.323 161.835 101.837 159.916 102.388C160.832 95.334 161.529 88.5003 162.053 81.887C156.646 88.0227 151.894 94.0481 148.494 99.8531C143.828 96.5465 138.03 93.644 131.795 90.7782C133.452 96.8771 135.806 102.903 138.771 108.891C136.853 109.553 134.891 110.177 132.973 110.839C127 102.241 122.945 93.3133 120.809 84.1649C123.555 83.5404 126.346 82.8055 129.136 82.034Z" fill="white"/>
<path d="M129.136 82.034C135.632 85.0467 141.997 87.986 147.447 91.2559C151.851 85.01 157.388 78.5804 163.361 72.1141C166.151 71.3058 168.898 70.5342 171.688 69.7627C170.641 79.5357 168.636 89.8597 165.715 100.845C163.797 101.323 161.835 101.837 159.916 102.388C160.832 95.334 161.529 88.5003 162.053 81.887C156.646 88.0227 151.894 94.0481 148.494 99.8531C143.828 96.5465 138.03 93.644 131.795 90.7782C133.452 96.8771 135.806 102.903 138.771 108.891C136.853 109.553 134.891 110.177 132.973 110.838C127 102.241 122.945 93.3133 120.809 84.1649C123.555 83.5404 126.346 82.8055 129.136 82.034Z" stroke="black"/>
<path d="M182.762 66.9333C188.429 65.5372 194.097 64.288 199.809 63.2593C208.31 61.6794 216.071 63.2225 212.409 70.1665C210.185 74.2079 204.735 76.6695 204.038 76.9267C204.604 76.9267 210.316 77.9187 205.346 84.4585C200.245 90.8513 191.045 95.995 184.985 96.9135C180.931 97.5381 176.876 98.3096 172.821 99.1914C177.704 87.6549 181.018 76.9267 182.762 66.9333ZM194.838 76.4123C199.285 75.604 202.512 74.0609 203.863 71.1952C205.171 68.3294 202.25 67.6681 197.978 68.4397C195.492 68.8805 193.007 69.3949 190.522 69.9093C189.781 72.4811 188.909 75.0897 187.95 77.7717C190.217 77.2574 192.528 76.8165 194.838 76.4123ZM198.152 85.23C200.375 81.8499 197.978 80.9314 193.836 81.6295C191.176 82.0704 188.473 82.5847 185.77 83.1358C184.506 86.1118 183.11 89.1245 181.585 92.2475C183.895 91.7698 186.206 91.3657 188.56 90.9983C192.092 90.4104 195.885 88.6102 198.152 85.23Z" fill="white"/>
<path d="M182.762 66.9333C188.429 65.5372 194.097 64.288 199.809 63.2593C208.31 61.6794 216.071 63.2225 212.409 70.1665C210.185 74.2079 204.735 76.6695 204.038 76.9267C204.604 76.9267 210.316 77.9187 205.346 84.4585C200.245 90.8513 191.045 95.995 184.985 96.9135C180.931 97.5381 176.876 98.3096 172.821 99.1914C177.704 87.6549 181.018 76.9267 182.762 66.9333ZM194.838 76.4123C199.285 75.604 202.512 74.0609 203.863 71.1952C205.171 68.3294 202.25 67.6681 197.978 68.4397C195.492 68.8805 193.007 69.3949 190.522 69.9093C189.781 72.4811 188.909 75.0897 187.95 77.7717C190.217 77.2574 192.528 76.8165 194.838 76.4123ZM198.152 85.23C200.375 81.8499 197.978 80.9314 193.836 81.6295C191.176 82.0704 188.473 82.5847 185.77 83.1358C184.506 86.1118 183.11 89.1245 181.585 92.2475C183.895 91.7698 186.206 91.3657 188.56 90.9983C192.092 90.4104 195.885 88.6102 198.152 85.23Z" stroke="black"/>
<path d="M260.541 82.8785C254.132 86.773 244.628 89.8959 236.257 92.4678C227.755 95.0029 220.344 96.6195 215.591 96.2153C206.523 95.407 208.005 87.1036 214.676 76.8897C221.651 66.8228 235.298 58.7766 250.95 61.2382C266.383 64.0673 273.795 75.6406 260.541 82.8785ZM252.65 80.4536C260.672 75.0527 258.056 68.1087 247.68 66.3452C237.26 64.7653 227.842 70.1295 222.567 76.706C217.466 83.3561 216.158 89.3081 223.483 89.9327C230.676 90.447 244.671 85.9279 252.65 80.4536Z" fill="white"/>
<path d="M260.541 82.8785C254.132 86.773 244.628 89.8959 236.257 92.4678C227.755 95.0029 220.344 96.6195 215.591 96.2153C206.523 95.407 208.005 87.1036 214.676 76.8897C221.651 66.8228 235.298 58.7766 250.95 61.2382C266.383 64.0673 273.795 75.6406 260.541 82.8785ZM252.65 80.4536C260.672 75.0527 258.056 68.1087 247.68 66.3452C237.26 64.7653 227.842 70.1295 222.567 76.706C217.466 83.3561 216.158 89.3081 223.483 89.9327C230.676 90.447 244.671 85.9279 252.65 80.4536Z" stroke="black"/>
<defs>
<linearGradient id="paint0_linear" x1="151" y1="1" x2="151" y2="132.5" gradientUnits="userSpaceOnUse">
<stop stop-color="#EE7335"/>
<stop offset="0.515625" stop-color="#FFE800"/>
<stop offset="1" stop-color="#0078BF"/>
</linearGradient>
</defs>
</svg>
