<svg id="product-svg" width="376" height="309" viewBox="0 0 376 309" fill="none" xmlns="http://www.w3.org/2000/svg">
<path id="product-shape" fill-rule="evenodd" clip-rule="evenodd" d="M88.3627 131.714C81.7928 133.847 74.781 135 67.5 135C30.2208 135 0 104.779 0 67.5C0 30.2208 30.2208 0 67.5 0C104.779 0 135 30.2208 135 67.5C135 76.5343 133.225 85.1541 130.005 93.0297C147.263 83.4636 167.227 78 188.5 78C209.248 78 228.751 83.1975 245.713 92.3295C242.672 84.6443 241 76.2673 241 67.5C241 30.2208 271.221 0 308.5 0C345.779 0 376 30.2208 376 67.5C376 104.779 345.779 135 308.5 135C301.681 135 295.098 133.989 288.892 132.108C300.365 149.893 307 170.941 307 193.5C307 257.289 253.946 309 188.5 309C123.054 309 70 257.289 70 193.5C70 170.774 76.7338 149.582 88.3627 131.714Z" fill="black"/>
</svg>
