<svg width="272" height="65" viewBox="0 0 272 65" fill="none" xmlns="http://www.w3.org/2000/svg">
<path d="M269.612 63.4808H2L13.5803 36.5525L2 9.62012H269.612L258.028 36.5525L269.612 63.4808Z" fill="black"/>
<path d="M269.612 63.4808H2L13.5803 36.5525L2 9.62012H269.612L258.028 36.5525L269.612 63.4808Z" stroke="black" stroke-width="2"/>
<path d="M269.612 54.8607H2L13.5803 27.9324L2 1H269.612L258.028 27.9324L269.612 54.8607Z" fill="#EE7335"/>
<path d="M269.612 54.8607H2L13.5803 27.9324L2 1H269.612L258.028 27.9324L269.612 54.8607Z" stroke="black" stroke-width="2"/>
<path d="M34.5549 34.3296C30.6526 34.3296 28.1355 31.1414 28.1355 27.3373C28.1355 23.5331 30.6526 20.345 34.5549 20.345C38.4572 20.345 40.9784 23.529 40.9784 27.3373C40.9784 31.1456 38.4613 34.3296 34.5549 34.3296ZM34.5549 17.1318C28.9119 17.1318 24.748 21.502 24.748 27.3373C24.748 33.1725 28.8996 37.5427 34.5549 37.5427C40.2102 37.5427 44.3617 33.1725 44.3617 27.3373C44.3617 21.502 40.202 17.1526 34.5549 17.1526V17.1318Z" fill="white" stroke="black" stroke-width="0.5"/>
<path d="M47.623 37.2001H50.941V30.0956H54.21C58.0551 30.0956 60.6294 27.3861 60.6294 23.7776C60.6294 20.1692 58.0551 17.4639 54.21 17.4639H47.623V37.2001ZM53.7932 26.8783H50.9328V20.6769H53.7932C56.0651 20.6769 57.2542 21.9255 57.2542 23.7776C57.2542 25.6297 56.061 26.8783 53.7932 26.8783Z" fill="white" stroke="black" stroke-width="0.5"/>
<path d="M66.8844 20.6768H75.3019V17.4639H63.5664V37.1951H75.4654V33.9821H66.8844V28.6841H74.6359V25.4712H66.8844V20.6768Z" fill="white" stroke="black" stroke-width="0.5"/>
<path d="M78.9561 17.4639V37.1951H82.2781V23.6358L91.9623 37.1951H94.9534V17.4639H91.6313V31.0522L81.943 17.4639H78.9561Z" fill="white" stroke="black" stroke-width="0.5"/>
<path d="M103.036 17.4639H99.7139V37.2001H103.036V17.4639Z" fill="white" stroke="black" stroke-width="0.5"/>
<path d="M107.796 17.4639V37.1951H111.118V23.6358L120.806 37.1951H123.793V17.4639H120.471V31.0522L110.783 17.4639H107.796Z" fill="white" stroke="black" stroke-width="0.5"/>
<path d="M137.245 34.383C136.342 34.3814 135.448 34.1973 134.615 33.8413C133.782 33.4854 133.027 32.9646 132.393 32.3093C131.759 31.6539 131.259 30.877 130.922 30.0234C130.585 29.1699 130.418 28.2566 130.43 27.3367C130.43 23.5285 133.196 20.2863 137.098 20.2863C140.392 20.2863 142.002 22.3673 142.002 22.3673L144.274 20.1115C144.274 20.1115 141.871 17.1523 137.107 17.1523C131.435 17.1523 127.059 21.5224 127.059 27.3575C127.059 33.1926 131.553 37.5627 137.245 37.5627C141.953 37.5627 144.413 35.0655 144.413 35.0655V26.0964H136.747V29.2512H141.148V33.4132C141.148 33.4132 140.012 34.383 137.245 34.383Z" fill="white" stroke="black" stroke-width="0.5"/>
<path d="M168.189 25.4962H159.915V17.4639H156.593V37.1951H159.915V28.7091H168.189V37.1951H171.511V17.4639H168.189V25.4962Z" fill="white" stroke="black" stroke-width="0.5"/>
<path d="M184.575 34.3296C180.673 34.3296 178.156 31.1414 178.156 27.3373C178.156 23.5331 180.673 20.345 184.575 20.345C188.478 20.345 190.999 23.529 190.999 27.3373C190.999 31.1456 188.478 34.3296 184.575 34.3296ZM184.575 17.1318C178.928 17.1318 174.769 21.502 174.769 27.3373C174.769 33.1725 178.92 37.5427 184.575 37.5427C190.231 37.5427 194.382 33.1725 194.382 27.3373C194.382 21.502 190.223 17.1526 184.575 17.1526V17.1318Z" fill="white" stroke="black" stroke-width="0.5"/>
<path d="M209.264 29.6335C209.264 32.4511 207.854 34.3407 205.112 34.3407C202.37 34.3407 200.961 32.4511 200.961 29.6335V17.4805H197.639V30.0497C197.639 34.3906 200.544 37.5412 205.112 37.5412C209.681 37.5412 212.586 34.3823 212.586 30.0497V17.4639H209.264V29.6335Z" fill="white" stroke="black" stroke-width="0.5"/>
<path d="M222.912 26.5412H220.28V20.6769H222.912C225.041 20.6769 226.369 21.6633 226.369 23.5903C226.369 25.5173 225.041 26.5412 222.912 26.5412ZM216.958 37.2001H220.28V29.7543H221.804L226.397 37.2001H230.271L225.429 29.5295C228.195 28.8262 229.748 26.5704 229.748 23.6112C229.748 20.0027 227.174 17.4639 223.324 17.4639H216.958V37.2001Z" fill="white" stroke="black" stroke-width="0.5"/>
<path d="M243.061 32.0446C243.061 33.6512 241.345 34.3296 239.686 34.3296C236.752 34.3296 235.089 31.3662 235.089 31.3662L232.584 33.5096C232.584 33.5096 234.823 37.5427 239.669 37.5427C243.322 37.5427 246.42 35.624 246.42 32.0446C246.42 28.4652 243.968 27.1125 240.997 25.9846C238.337 24.969 236.817 24.4321 236.817 22.7132C236.817 21.3896 238.117 20.345 239.78 20.345C242.187 20.345 243.792 22.5717 243.792 22.5717L246.089 20.2617C245.324 19.3036 244.364 18.527 243.274 17.9864C242.184 17.4458 240.992 17.1542 239.78 17.1318C235.877 17.1318 233.438 19.9204 233.438 22.7132C233.438 26.38 236.65 27.9574 239.502 28.9563C241.815 29.7887 243.061 30.3798 243.061 32.0446Z" fill="white" stroke="black" stroke-width="0.5"/>
</svg>
