<svg width="441" height="250" viewBox="0 0 441 250" fill="none" xmlns="http://www.w3.org/2000/svg">
<path d="M220.34 11.1963L251.602 74.5148L340.321 30.5175L304.197 93.0536L422.203 82.3441L330.168 124.243L440 150.225L321.274 158.182L388.054 212.605L280.331 184.1L282.863 249.682L220.34 193.758L157.818 249.682L160.35 184.1L52.6274 212.605L119.412 158.182L0.685547 150.225L110.513 124.243L18.4784 82.3441L136.484 93.0536L100.365 30.5175L189.079 74.5148L220.34 11.1963Z" fill="black"/>
<path d="M220.34 3L251.602 66.3198L340.321 22.3167L304.197 84.854L422.203 74.1491L330.168 116.044L440 142.027L321.274 149.988L388.054 204.407L280.331 175.902L282.863 241.486L220.34 185.56L157.818 241.486L160.35 175.902L52.6274 204.407L119.412 149.988L0.685547 142.027L110.513 116.044L18.4784 74.1491L136.484 84.854L100.365 22.3167L189.079 66.3198L220.34 3Z" fill="#FFE02E"/>
<path d="M220.34 3L251.602 66.3198L340.321 22.3167L304.197 84.854L422.203 74.1491L330.168 116.044L440 142.027L321.274 149.988L388.054 204.407L280.331 175.902L282.863 241.486L220.34 185.56L157.818 241.486L160.35 175.902L52.6274 204.407L119.412 149.988L0.685547 142.027L110.513 116.044L18.4784 74.1491L136.484 84.854L100.365 22.3167L189.079 66.3198L220.34 3Z" stroke="black" stroke-width="2"/>
<mask id="path-4-outside-1" maskUnits="userSpaceOnUse" x="93" y="93" width="254" height="79" fill="black">
<rect fill="white" x="93" y="93" width="254" height="79"/>
<path d="M94 124.987V94.5101H102.015C103.519 94.5101 104.908 94.7226 106.183 95.1477C107.487 95.5869 108.575 96.1961 109.449 96.9754C110.38 97.8113 111.082 98.7677 111.555 99.8445C112.056 100.992 112.307 102.246 112.307 103.606C112.307 105.377 111.956 106.823 111.254 107.942C110.538 109.075 109.736 109.947 108.848 110.556C107.902 111.208 107.05 111.64 106.291 111.852C105.46 112.093 104.958 112.221 104.786 112.235L113.317 124.987H108.869L100.554 112.532H97.6958V124.987H94ZM97.6958 109.047H102.23C104.307 109.047 105.889 108.551 106.978 107.559C108.067 106.567 108.611 105.221 108.611 103.521C108.611 101.835 108.067 100.496 106.978 99.5045C105.875 98.4985 104.292 97.9955 102.23 97.9955H97.6958V109.047Z"/>
<path d="M118.323 124.987V94.5101H136.093V97.9955H122.019V107.623H135.04V111.109H122.019V121.501H136.372V124.987H118.323Z"/>
<path d="M141.443 115.933C140.699 114.034 140.326 111.973 140.326 109.748C140.326 107.524 140.699 105.462 141.443 103.564C142.203 101.637 143.248 99.972 144.58 98.5694C145.941 97.1383 147.553 96.019 149.415 95.2114C151.277 94.4038 153.319 94 155.539 94C157.774 94 159.822 94.4038 161.684 95.2114C163.518 96.0048 165.122 97.1242 166.497 98.5694C167.858 100 168.911 101.665 169.656 103.564C170.401 105.462 170.773 107.524 170.773 109.748C170.773 111.661 170.494 113.446 169.935 115.104C169.362 116.79 168.574 118.299 167.572 119.631L172.32 123.818L170.021 126.474L165.144 122.202C163.826 123.265 162.372 124.08 160.782 124.647C159.149 125.227 157.401 125.518 155.539 125.518C153.362 125.518 151.32 125.107 149.415 124.285C147.539 123.478 145.927 122.365 144.58 120.949C143.263 119.56 142.217 117.888 141.443 115.933ZM145.096 105.094C144.552 106.596 144.28 108.147 144.28 109.748C144.28 111.349 144.552 112.901 145.096 114.403C145.626 115.862 146.4 117.173 147.417 118.334C148.42 119.482 149.601 120.382 150.962 121.034C152.352 121.699 153.877 122.032 155.539 122.032C156.842 122.032 158.06 121.827 159.192 121.416C160.323 121.005 161.34 120.438 162.243 119.716L157.924 115.89L160.266 113.191L164.649 117.102C165.351 116.067 165.896 114.927 166.282 113.68C166.669 112.419 166.863 111.109 166.863 109.748C166.863 108.133 166.583 106.582 166.025 105.094C165.466 103.62 164.692 102.317 163.704 101.183C162.687 100.022 161.498 99.1219 160.137 98.4843C158.719 97.8184 157.186 97.4855 155.539 97.4855C153.877 97.4855 152.352 97.8184 150.962 98.4843C149.601 99.1361 148.42 100.036 147.417 101.183C146.385 102.359 145.612 103.663 145.096 105.094Z"/>
<path d="M177.069 113.765V94.5101H180.765V113.361C180.765 114.608 180.901 115.749 181.173 116.783C181.445 117.831 181.896 118.752 182.527 119.546C183.157 120.353 183.938 120.963 184.869 121.374C185.843 121.813 186.982 122.032 188.285 122.032C189.589 122.032 190.727 121.813 191.702 121.374C192.633 120.963 193.413 120.353 194.044 119.546C194.674 118.752 195.125 117.831 195.397 116.783C195.67 115.749 195.806 114.608 195.806 113.361V94.5101H199.501V113.765C199.501 115.536 199.251 117.123 198.749 118.526C198.248 119.943 197.51 121.175 196.536 122.224C195.562 123.272 194.387 124.08 193.012 124.647C191.594 125.227 190.018 125.518 188.285 125.518C186.552 125.518 184.976 125.227 183.558 124.647C182.183 124.08 181.008 123.272 180.034 122.224C179.089 121.204 178.358 119.971 177.842 118.526C177.327 117.081 177.069 115.494 177.069 113.765Z"/>
<path d="M206.721 124.987V94.5101H224.491V97.9955H210.417V107.623H223.438V111.109H210.417V121.501H224.77V124.987H206.721Z"/>
<path d="M229.239 119.163L232.334 117.336C232.563 117.888 232.907 118.469 233.365 119.078C233.823 119.688 234.31 120.191 234.826 120.587C235.399 121.026 236.044 121.374 236.76 121.629C237.505 121.898 238.285 122.032 239.102 122.032C239.833 122.032 240.542 121.926 241.229 121.714C241.917 121.501 242.526 121.196 243.056 120.8C243.6 120.389 244.03 119.893 244.345 119.312C244.66 118.731 244.818 118.023 244.818 117.187C244.818 116.408 244.667 115.735 244.366 115.168C244.08 114.615 243.664 114.112 243.12 113.659C242.547 113.191 241.91 112.78 241.208 112.426L238.844 111.279C237.655 110.712 236.652 110.216 235.836 109.791C234.805 109.252 233.895 108.643 233.107 107.963C232.262 107.24 231.603 106.44 231.13 105.562C230.643 104.655 230.4 103.585 230.4 102.352C230.4 101.304 230.586 100.298 230.958 99.3345C231.345 98.3285 231.904 97.4359 232.634 96.6566C233.365 95.8773 234.282 95.2397 235.385 94.7438C236.502 94.2479 237.784 94 239.231 94C240.348 94 241.358 94.1346 242.261 94.4038C243.149 94.673 243.972 95.0272 244.732 95.4664C245.448 95.8773 246.092 96.3591 246.665 96.9116C247.267 97.4784 247.725 97.9884 248.041 98.4418L245.269 100.652C245.068 100.355 244.739 99.9791 244.28 99.5257C243.908 99.1573 243.45 98.8173 242.905 98.5056C242.361 98.1939 241.795 97.9459 241.208 97.7617C240.606 97.5776 239.947 97.4855 239.231 97.4855C238.386 97.4855 237.648 97.613 237.018 97.868C236.387 98.123 235.85 98.4702 235.406 98.9094C234.962 99.3486 234.633 99.8516 234.418 100.418C234.203 100.985 234.096 101.559 234.096 102.14C234.096 102.877 234.253 103.507 234.568 104.031C234.883 104.556 235.342 105.059 235.943 105.54C236.531 106.022 237.247 106.468 238.092 106.879C239.295 107.474 240.248 107.928 240.95 108.239C242.339 108.863 243.407 109.401 244.151 109.855C245.083 110.421 245.885 111.038 246.558 111.704C247.231 112.37 247.74 113.128 248.084 113.978C248.442 114.856 248.621 115.841 248.621 116.932C248.621 118.278 248.377 119.475 247.89 120.523C247.389 121.6 246.723 122.5 245.892 123.223C245.018 123.974 244.008 124.54 242.862 124.923C241.659 125.32 240.42 125.518 239.145 125.518C237.841 125.518 236.652 125.334 235.578 124.965C234.532 124.611 233.594 124.129 232.763 123.52C231.932 122.911 231.231 122.231 230.658 121.48C230.013 120.644 229.54 119.872 229.239 119.163Z"/>
<path d="M251.521 97.9955V94.5101H272.901V97.9955H264.048V124.987H260.353V97.9955H251.521Z"/>
<path d="M277.736 124.987V94.5101H281.431V124.987H277.736Z"/>
<path d="M289.274 124.987V94.5101H293.099L309.601 118.887V94.5101H313.297V124.987H309.472L292.97 100.61V124.987H289.274Z"/>
<path d="M319.7 115.933C318.955 114.034 318.583 111.973 318.583 109.748C318.583 107.524 318.955 105.462 319.7 103.564C320.43 101.694 321.49 100.029 322.88 98.5694C324.241 97.1383 325.874 96.019 327.779 95.2114C329.699 94.4038 331.797 94 334.075 94C336.266 94 338.351 94.3684 340.327 95.1051C342.333 95.8561 343.944 96.9258 345.162 98.3143L342.519 100.865C341.574 99.887 340.349 99.0794 338.845 98.4418C337.341 97.8043 335.722 97.4855 333.989 97.4855C332.284 97.4855 330.723 97.8184 329.305 98.4843C327.929 99.1361 326.726 100.036 325.695 101.183C324.663 102.331 323.883 103.642 323.353 105.115C322.808 106.617 322.536 108.176 322.536 109.791C322.536 111.392 322.808 112.936 323.353 114.424C323.883 115.883 324.663 117.187 325.695 118.334C326.726 119.482 327.944 120.382 329.348 121.034C330.78 121.699 332.384 122.032 334.161 122.032C334.748 122.032 335.407 121.99 336.137 121.905C336.753 121.834 337.484 121.699 338.329 121.501C339.031 121.331 339.754 121.104 340.499 120.821C341.173 120.552 341.789 120.212 342.347 119.801V111.746H334.633V108.282H346V121.501C345.255 122.153 344.396 122.741 343.422 123.265C342.562 123.733 341.567 124.151 340.435 124.519C339.489 124.831 338.422 125.079 337.233 125.263C336.13 125.433 335.092 125.518 334.118 125.518C331.84 125.518 329.727 125.107 327.779 124.285C325.859 123.478 324.226 122.365 322.88 120.949C321.505 119.503 320.445 117.831 319.7 115.933Z"/>
<path d="M133.257 168.512L145.376 138.036H148.792L160.803 168.512H156.936L153.734 160.287H140.433L137.232 168.512H133.257ZM141.809 156.802H152.359L147.073 143.264L141.809 156.802Z"/>
<path d="M176.274 159.459C175.529 157.56 175.157 155.499 175.157 153.274C175.157 151.05 175.529 148.988 176.274 147.089C177.033 145.163 178.079 143.498 179.411 142.095C180.772 140.664 182.383 139.545 184.246 138.737C186.108 137.93 188.149 137.526 190.369 137.526C192.604 137.526 194.652 137.93 196.515 138.737C198.348 139.531 199.953 140.65 201.328 142.095C202.689 143.526 203.741 145.191 204.486 147.089C205.231 148.988 205.604 151.05 205.604 153.274C205.604 155.187 205.324 156.972 204.766 158.63C204.193 160.316 203.405 161.825 202.402 163.157L207.151 167.343L204.852 170L199.974 165.728C198.656 166.791 197.202 167.606 195.612 168.172C193.979 168.753 192.232 169.044 190.369 169.044C188.192 169.044 186.151 168.633 184.246 167.811C182.369 167.003 180.758 165.891 179.411 164.474C178.093 163.086 177.047 161.414 176.274 159.459ZM179.927 148.62C179.382 150.122 179.11 151.673 179.11 153.274C179.11 154.875 179.382 156.427 179.927 157.928C180.457 159.388 181.23 160.698 182.247 161.86C183.25 163.008 184.432 163.908 185.793 164.559C187.182 165.225 188.708 165.558 190.369 165.558C191.673 165.558 192.891 165.353 194.022 164.942C195.154 164.531 196.171 163.964 197.073 163.242L192.754 159.416L195.097 156.717L199.48 160.628C200.182 159.593 200.726 158.453 201.113 157.206C201.5 155.945 201.693 154.634 201.693 153.274C201.693 151.659 201.414 150.107 200.855 148.62C200.296 147.146 199.523 145.843 198.534 144.709C197.517 143.547 196.328 142.648 194.968 142.01C193.549 141.344 192.017 141.011 190.369 141.011C188.708 141.011 187.182 141.344 185.793 142.01C184.432 142.662 183.25 143.562 182.247 144.709C181.216 145.885 180.442 147.189 179.927 148.62Z"/>
<path d="M211.899 157.291V138.036H215.595V156.887C215.595 158.134 215.731 159.274 216.003 160.309C216.276 161.357 216.727 162.278 217.357 163.072C217.987 163.879 218.768 164.488 219.699 164.899C220.673 165.339 221.812 165.558 223.116 165.558C224.419 165.558 225.558 165.339 226.532 164.899C227.463 164.488 228.244 163.879 228.874 163.072C229.504 162.278 229.956 161.357 230.228 160.309C230.5 159.274 230.636 158.134 230.636 156.887V138.036H234.332V157.291C234.332 159.062 234.081 160.649 233.58 162.051C233.078 163.468 232.341 164.701 231.367 165.749C230.393 166.798 229.218 167.606 227.843 168.172C226.425 168.753 224.849 169.044 223.116 169.044C221.382 169.044 219.807 168.753 218.388 168.172C217.013 167.606 215.839 166.798 214.865 165.749C213.919 164.729 213.189 163.497 212.673 162.051C212.157 160.606 211.899 159.019 211.899 157.291Z"/>
<path d="M240.735 159.459C239.99 157.56 239.618 155.499 239.618 153.274C239.618 151.05 239.99 148.988 240.735 147.089C241.494 145.163 242.54 143.498 243.872 142.095C245.233 140.664 246.844 139.545 248.707 138.737C250.569 137.93 252.61 137.526 254.83 137.526C257.065 137.526 259.114 137.93 260.976 138.737C262.809 139.531 264.414 140.65 265.789 142.095C267.15 143.526 268.203 145.191 268.947 147.089C269.692 148.988 270.065 151.05 270.065 153.274C270.065 155.499 269.692 157.56 268.947 159.459C268.188 161.386 267.135 163.057 265.789 164.474C264.442 165.891 262.838 167.003 260.976 167.811C259.071 168.633 257.022 169.044 254.83 169.044C252.653 169.044 250.612 168.633 248.707 167.811C246.83 167.003 245.219 165.891 243.872 164.474C242.554 163.086 241.509 161.414 240.735 159.459ZM244.388 148.62C243.843 150.122 243.571 151.673 243.571 153.274C243.571 154.875 243.843 156.427 244.388 157.928C244.918 159.416 245.684 160.727 246.687 161.86C247.718 163.022 248.9 163.922 250.232 164.559C251.65 165.225 253.183 165.558 254.83 165.558C256.478 165.558 258.011 165.225 259.429 164.559C260.79 163.922 261.979 163.022 262.996 161.86C263.998 160.727 264.765 159.416 265.295 157.928C265.839 156.427 266.111 154.875 266.111 153.274C266.111 151.673 265.839 150.122 265.295 148.62C264.765 147.16 263.998 145.857 262.996 144.709C261.979 143.547 260.79 142.648 259.429 142.01C258.011 141.344 256.478 141.011 254.83 141.011C253.183 141.011 251.65 141.344 250.232 142.01C248.9 142.648 247.718 143.547 246.687 144.709C245.684 145.857 244.918 147.16 244.388 148.62Z"/>
<path d="M272.342 141.521V138.036H293.722V141.521H284.869V168.512H281.174V141.521H272.342Z"/>
<path d="M297.933 168.512V138.036H315.703V141.521H301.629V151.149H314.65V154.634H301.629V165.027H315.983V168.512H297.933Z"/>
</mask>
<path d="M94 124.987V94.5101H102.015C103.519 94.5101 104.908 94.7226 106.183 95.1477C107.487 95.5869 108.575 96.1961 109.449 96.9754C110.38 97.8113 111.082 98.7677 111.555 99.8445C112.056 100.992 112.307 102.246 112.307 103.606C112.307 105.377 111.956 106.823 111.254 107.942C110.538 109.075 109.736 109.947 108.848 110.556C107.902 111.208 107.05 111.64 106.291 111.852C105.46 112.093 104.958 112.221 104.786 112.235L113.317 124.987H108.869L100.554 112.532H97.6958V124.987H94ZM97.6958 109.047H102.23C104.307 109.047 105.889 108.551 106.978 107.559C108.067 106.567 108.611 105.221 108.611 103.521C108.611 101.835 108.067 100.496 106.978 99.5045C105.875 98.4985 104.292 97.9955 102.23 97.9955H97.6958V109.047Z" fill="white"/>
<path d="M118.323 124.987V94.5101H136.093V97.9955H122.019V107.623H135.04V111.109H122.019V121.501H136.372V124.987H118.323Z" fill="white"/>
<path d="M141.443 115.933C140.699 114.034 140.326 111.973 140.326 109.748C140.326 107.524 140.699 105.462 141.443 103.564C142.203 101.637 143.248 99.972 144.58 98.5694C145.941 97.1383 147.553 96.019 149.415 95.2114C151.277 94.4038 153.319 94 155.539 94C157.774 94 159.822 94.4038 161.684 95.2114C163.518 96.0048 165.122 97.1242 166.497 98.5694C167.858 100 168.911 101.665 169.656 103.564C170.401 105.462 170.773 107.524 170.773 109.748C170.773 111.661 170.494 113.446 169.935 115.104C169.362 116.79 168.574 118.299 167.572 119.631L172.32 123.818L170.021 126.474L165.144 122.202C163.826 123.265 162.372 124.08 160.782 124.647C159.149 125.227 157.401 125.518 155.539 125.518C153.362 125.518 151.32 125.107 149.415 124.285C147.539 123.478 145.927 122.365 144.58 120.949C143.263 119.56 142.217 117.888 141.443 115.933ZM145.096 105.094C144.552 106.596 144.28 108.147 144.28 109.748C144.28 111.349 144.552 112.901 145.096 114.403C145.626 115.862 146.4 117.173 147.417 118.334C148.42 119.482 149.601 120.382 150.962 121.034C152.352 121.699 153.877 122.032 155.539 122.032C156.842 122.032 158.06 121.827 159.192 121.416C160.323 121.005 161.34 120.438 162.243 119.716L157.924 115.89L160.266 113.191L164.649 117.102C165.351 116.067 165.896 114.927 166.282 113.68C166.669 112.419 166.863 111.109 166.863 109.748C166.863 108.133 166.583 106.582 166.025 105.094C165.466 103.62 164.692 102.317 163.704 101.183C162.687 100.022 161.498 99.1219 160.137 98.4843C158.719 97.8184 157.186 97.4855 155.539 97.4855C153.877 97.4855 152.352 97.8184 150.962 98.4843C149.601 99.1361 148.42 100.036 147.417 101.183C146.385 102.359 145.612 103.663 145.096 105.094Z" fill="white"/>
<path d="M177.069 113.765V94.5101H180.765V113.361C180.765 114.608 180.901 115.749 181.173 116.783C181.445 117.831 181.896 118.752 182.527 119.546C183.157 120.353 183.938 120.963 184.869 121.374C185.843 121.813 186.982 122.032 188.285 122.032C189.589 122.032 190.727 121.813 191.702 121.374C192.633 120.963 193.413 120.353 194.044 119.546C194.674 118.752 195.125 117.831 195.397 116.783C195.67 115.749 195.806 114.608 195.806 113.361V94.5101H199.501V113.765C199.501 115.536 199.251 117.123 198.749 118.526C198.248 119.943 197.51 121.175 196.536 122.224C195.562 123.272 194.387 124.08 193.012 124.647C191.594 125.227 190.018 125.518 188.285 125.518C186.552 125.518 184.976 125.227 183.558 124.647C182.183 124.08 181.008 123.272 180.034 122.224C179.089 121.204 178.358 119.971 177.842 118.526C177.327 117.081 177.069 115.494 177.069 113.765Z" fill="white"/>
<path d="M206.721 124.987V94.5101H224.491V97.9955H210.417V107.623H223.438V111.109H210.417V121.501H224.77V124.987H206.721Z" fill="white"/>
<path d="M229.239 119.163L232.334 117.336C232.563 117.888 232.907 118.469 233.365 119.078C233.823 119.688 234.31 120.191 234.826 120.587C235.399 121.026 236.044 121.374 236.76 121.629C237.505 121.898 238.285 122.032 239.102 122.032C239.833 122.032 240.542 121.926 241.229 121.714C241.917 121.501 242.526 121.196 243.056 120.8C243.6 120.389 244.03 119.893 244.345 119.312C244.66 118.731 244.818 118.023 244.818 117.187C244.818 116.408 244.667 115.735 244.366 115.168C244.08 114.615 243.664 114.112 243.12 113.659C242.547 113.191 241.91 112.78 241.208 112.426L238.844 111.279C237.655 110.712 236.652 110.216 235.836 109.791C234.805 109.252 233.895 108.643 233.107 107.963C232.262 107.24 231.603 106.44 231.13 105.562C230.643 104.655 230.4 103.585 230.4 102.352C230.4 101.304 230.586 100.298 230.958 99.3345C231.345 98.3285 231.904 97.4359 232.634 96.6566C233.365 95.8773 234.282 95.2397 235.385 94.7438C236.502 94.2479 237.784 94 239.231 94C240.348 94 241.358 94.1346 242.261 94.4038C243.149 94.673 243.972 95.0272 244.732 95.4664C245.448 95.8773 246.092 96.3591 246.665 96.9116C247.267 97.4784 247.725 97.9884 248.041 98.4418L245.269 100.652C245.068 100.355 244.739 99.9791 244.28 99.5257C243.908 99.1573 243.45 98.8173 242.905 98.5056C242.361 98.1939 241.795 97.9459 241.208 97.7617C240.606 97.5776 239.947 97.4855 239.231 97.4855C238.386 97.4855 237.648 97.613 237.018 97.868C236.387 98.123 235.85 98.4702 235.406 98.9094C234.962 99.3486 234.633 99.8516 234.418 100.418C234.203 100.985 234.096 101.559 234.096 102.14C234.096 102.877 234.253 103.507 234.568 104.031C234.883 104.556 235.342 105.059 235.943 105.54C236.531 106.022 237.247 106.468 238.092 106.879C239.295 107.474 240.248 107.928 240.95 108.239C242.339 108.863 243.407 109.401 244.151 109.855C245.083 110.421 245.885 111.038 246.558 111.704C247.231 112.37 247.74 113.128 248.084 113.978C248.442 114.856 248.621 115.841 248.621 116.932C248.621 118.278 248.377 119.475 247.89 120.523C247.389 121.6 246.723 122.5 245.892 123.223C245.018 123.974 244.008 124.54 242.862 124.923C241.659 125.32 240.42 125.518 239.145 125.518C237.841 125.518 236.652 125.334 235.578 124.965C234.532 124.611 233.594 124.129 232.763 123.52C231.932 122.911 231.231 122.231 230.658 121.48C230.013 120.644 229.54 119.872 229.239 119.163Z" fill="white"/>
<path d="M251.521 97.9955V94.5101H272.901V97.9955H264.048V124.987H260.353V97.9955H251.521Z" fill="white"/>
<path d="M277.736 124.987V94.5101H281.431V124.987H277.736Z" fill="white"/>
<path d="M289.274 124.987V94.5101H293.099L309.601 118.887V94.5101H313.297V124.987H309.472L292.97 100.61V124.987H289.274Z" fill="white"/>
<path d="M319.7 115.933C318.955 114.034 318.583 111.973 318.583 109.748C318.583 107.524 318.955 105.462 319.7 103.564C320.43 101.694 321.49 100.029 322.88 98.5694C324.241 97.1383 325.874 96.019 327.779 95.2114C329.699 94.4038 331.797 94 334.075 94C336.266 94 338.351 94.3684 340.327 95.1051C342.333 95.8561 343.944 96.9258 345.162 98.3143L342.519 100.865C341.574 99.887 340.349 99.0794 338.845 98.4418C337.341 97.8043 335.722 97.4855 333.989 97.4855C332.284 97.4855 330.723 97.8184 329.305 98.4843C327.929 99.1361 326.726 100.036 325.695 101.183C324.663 102.331 323.883 103.642 323.353 105.115C322.808 106.617 322.536 108.176 322.536 109.791C322.536 111.392 322.808 112.936 323.353 114.424C323.883 115.883 324.663 117.187 325.695 118.334C326.726 119.482 327.944 120.382 329.348 121.034C330.78 121.699 332.384 122.032 334.161 122.032C334.748 122.032 335.407 121.99 336.137 121.905C336.753 121.834 337.484 121.699 338.329 121.501C339.031 121.331 339.754 121.104 340.499 120.821C341.173 120.552 341.789 120.212 342.347 119.801V111.746H334.633V108.282H346V121.501C345.255 122.153 344.396 122.741 343.422 123.265C342.562 123.733 341.567 124.151 340.435 124.519C339.489 124.831 338.422 125.079 337.233 125.263C336.13 125.433 335.092 125.518 334.118 125.518C331.84 125.518 329.727 125.107 327.779 124.285C325.859 123.478 324.226 122.365 322.88 120.949C321.505 119.503 320.445 117.831 319.7 115.933Z" fill="white"/>
<path d="M133.257 168.512L145.376 138.036H148.792L160.803 168.512H156.936L153.734 160.287H140.433L137.232 168.512H133.257ZM141.809 156.802H152.359L147.073 143.264L141.809 156.802Z" fill="white"/>
<path d="M176.274 159.459C175.529 157.56 175.157 155.499 175.157 153.274C175.157 151.05 175.529 148.988 176.274 147.089C177.033 145.163 178.079 143.498 179.411 142.095C180.772 140.664 182.383 139.545 184.246 138.737C186.108 137.93 188.149 137.526 190.369 137.526C192.604 137.526 194.652 137.93 196.515 138.737C198.348 139.531 199.953 140.65 201.328 142.095C202.689 143.526 203.741 145.191 204.486 147.089C205.231 148.988 205.604 151.05 205.604 153.274C205.604 155.187 205.324 156.972 204.766 158.63C204.193 160.316 203.405 161.825 202.402 163.157L207.151 167.343L204.852 170L199.974 165.728C198.656 166.791 197.202 167.606 195.612 168.172C193.979 168.753 192.232 169.044 190.369 169.044C188.192 169.044 186.151 168.633 184.246 167.811C182.369 167.003 180.758 165.891 179.411 164.474C178.093 163.086 177.047 161.414 176.274 159.459ZM179.927 148.62C179.382 150.122 179.11 151.673 179.11 153.274C179.11 154.875 179.382 156.427 179.927 157.928C180.457 159.388 181.23 160.698 182.247 161.86C183.25 163.008 184.432 163.908 185.793 164.559C187.182 165.225 188.708 165.558 190.369 165.558C191.673 165.558 192.891 165.353 194.022 164.942C195.154 164.531 196.171 163.964 197.073 163.242L192.754 159.416L195.097 156.717L199.48 160.628C200.182 159.593 200.726 158.453 201.113 157.206C201.5 155.945 201.693 154.634 201.693 153.274C201.693 151.659 201.414 150.107 200.855 148.62C200.296 147.146 199.523 145.843 198.534 144.709C197.517 143.547 196.328 142.648 194.968 142.01C193.549 141.344 192.017 141.011 190.369 141.011C188.708 141.011 187.182 141.344 185.793 142.01C184.432 142.662 183.25 143.562 182.247 144.709C181.216 145.885 180.442 147.189 179.927 148.62Z" fill="white"/>
<path d="M211.899 157.291V138.036H215.595V156.887C215.595 158.134 215.731 159.274 216.003 160.309C216.276 161.357 216.727 162.278 217.357 163.072C217.987 163.879 218.768 164.488 219.699 164.899C220.673 165.339 221.812 165.558 223.116 165.558C224.419 165.558 225.558 165.339 226.532 164.899C227.463 164.488 228.244 163.879 228.874 163.072C229.504 162.278 229.956 161.357 230.228 160.309C230.5 159.274 230.636 158.134 230.636 156.887V138.036H234.332V157.291C234.332 159.062 234.081 160.649 233.58 162.051C233.078 163.468 232.341 164.701 231.367 165.749C230.393 166.798 229.218 167.606 227.843 168.172C226.425 168.753 224.849 169.044 223.116 169.044C221.382 169.044 219.807 168.753 218.388 168.172C217.013 167.606 215.839 166.798 214.865 165.749C213.919 164.729 213.189 163.497 212.673 162.051C212.157 160.606 211.899 159.019 211.899 157.291Z" fill="white"/>
<path d="M240.735 159.459C239.99 157.56 239.618 155.499 239.618 153.274C239.618 151.05 239.99 148.988 240.735 147.089C241.494 145.163 242.54 143.498 243.872 142.095C245.233 140.664 246.844 139.545 248.707 138.737C250.569 137.93 252.61 137.526 254.83 137.526C257.065 137.526 259.114 137.93 260.976 138.737C262.809 139.531 264.414 140.65 265.789 142.095C267.15 143.526 268.203 145.191 268.947 147.089C269.692 148.988 270.065 151.05 270.065 153.274C270.065 155.499 269.692 157.56 268.947 159.459C268.188 161.386 267.135 163.057 265.789 164.474C264.442 165.891 262.838 167.003 260.976 167.811C259.071 168.633 257.022 169.044 254.83 169.044C252.653 169.044 250.612 168.633 248.707 167.811C246.83 167.003 245.219 165.891 243.872 164.474C242.554 163.086 241.509 161.414 240.735 159.459ZM244.388 148.62C243.843 150.122 243.571 151.673 243.571 153.274C243.571 154.875 243.843 156.427 244.388 157.928C244.918 159.416 245.684 160.727 246.687 161.86C247.718 163.022 248.9 163.922 250.232 164.559C251.65 165.225 253.183 165.558 254.83 165.558C256.478 165.558 258.011 165.225 259.429 164.559C260.79 163.922 261.979 163.022 262.996 161.86C263.998 160.727 264.765 159.416 265.295 157.928C265.839 156.427 266.111 154.875 266.111 153.274C266.111 151.673 265.839 150.122 265.295 148.62C264.765 147.16 263.998 145.857 262.996 144.709C261.979 143.547 260.79 142.648 259.429 142.01C258.011 141.344 256.478 141.011 254.83 141.011C253.183 141.011 251.65 141.344 250.232 142.01C248.9 142.648 247.718 143.547 246.687 144.709C245.684 145.857 244.918 147.16 244.388 148.62Z" fill="white"/>
<path d="M272.342 141.521V138.036H293.722V141.521H284.869V168.512H281.174V141.521H272.342Z" fill="white"/>
<path d="M297.933 168.512V138.036H315.703V141.521H301.629V151.149H314.65V154.634H301.629V165.027H315.983V168.512H297.933Z" fill="white"/>
<path d="M94 124.987V94.5101H102.015C103.519 94.5101 104.908 94.7226 106.183 95.1477C107.487 95.5869 108.575 96.1961 109.449 96.9754C110.38 97.8113 111.082 98.7677 111.555 99.8445C112.056 100.992 112.307 102.246 112.307 103.606C112.307 105.377 111.956 106.823 111.254 107.942C110.538 109.075 109.736 109.947 108.848 110.556C107.902 111.208 107.05 111.64 106.291 111.852C105.46 112.093 104.958 112.221 104.786 112.235L113.317 124.987H108.869L100.554 112.532H97.6958V124.987H94ZM97.6958 109.047H102.23C104.307 109.047 105.889 108.551 106.978 107.559C108.067 106.567 108.611 105.221 108.611 103.521C108.611 101.835 108.067 100.496 106.978 99.5045C105.875 98.4985 104.292 97.9955 102.23 97.9955H97.6958V109.047Z" stroke="white" stroke-width="2" mask="url(#path-4-outside-1)"/>
<path d="M94 124.987V94.5101H102.015C103.519 94.5101 104.908 94.7226 106.183 95.1477C107.487 95.5869 108.575 96.1961 109.449 96.9754C110.38 97.8113 111.082 98.7677 111.555 99.8445C112.056 100.992 112.307 102.246 112.307 103.606C112.307 105.377 111.956 106.823 111.254 107.942C110.538 109.075 109.736 109.947 108.848 110.556C107.902 111.208 107.05 111.64 106.291 111.852C105.46 112.093 104.958 112.221 104.786 112.235L113.317 124.987H108.869L100.554 112.532H97.6958V124.987H94ZM97.6958 109.047H102.23C104.307 109.047 105.889 108.551 106.978 107.559C108.067 106.567 108.611 105.221 108.611 103.521C108.611 101.835 108.067 100.496 106.978 99.5045C105.875 98.4985 104.292 97.9955 102.23 97.9955H97.6958V109.047Z" stroke="black" stroke-width="2" mask="url(#path-4-outside-1)"/>
<path d="M118.323 124.987V94.5101H136.093V97.9955H122.019V107.623H135.04V111.109H122.019V121.501H136.372V124.987H118.323Z" stroke="white" stroke-width="2" mask="url(#path-4-outside-1)"/>
<path d="M118.323 124.987V94.5101H136.093V97.9955H122.019V107.623H135.04V111.109H122.019V121.501H136.372V124.987H118.323Z" stroke="black" stroke-width="2" mask="url(#path-4-outside-1)"/>
<path d="M141.443 115.933C140.699 114.034 140.326 111.973 140.326 109.748C140.326 107.524 140.699 105.462 141.443 103.564C142.203 101.637 143.248 99.972 144.58 98.5694C145.941 97.1383 147.553 96.019 149.415 95.2114C151.277 94.4038 153.319 94 155.539 94C157.774 94 159.822 94.4038 161.684 95.2114C163.518 96.0048 165.122 97.1242 166.497 98.5694C167.858 100 168.911 101.665 169.656 103.564C170.401 105.462 170.773 107.524 170.773 109.748C170.773 111.661 170.494 113.446 169.935 115.104C169.362 116.79 168.574 118.299 167.572 119.631L172.32 123.818L170.021 126.474L165.144 122.202C163.826 123.265 162.372 124.08 160.782 124.647C159.149 125.227 157.401 125.518 155.539 125.518C153.362 125.518 151.32 125.107 149.415 124.285C147.539 123.478 145.927 122.365 144.58 120.949C143.263 119.56 142.217 117.888 141.443 115.933ZM145.096 105.094C144.552 106.596 144.28 108.147 144.28 109.748C144.28 111.349 144.552 112.901 145.096 114.403C145.626 115.862 146.4 117.173 147.417 118.334C148.42 119.482 149.601 120.382 150.962 121.034C152.352 121.699 153.877 122.032 155.539 122.032C156.842 122.032 158.06 121.827 159.192 121.416C160.323 121.005 161.34 120.438 162.243 119.716L157.924 115.89L160.266 113.191L164.649 117.102C165.351 116.067 165.896 114.927 166.282 113.68C166.669 112.419 166.863 111.109 166.863 109.748C166.863 108.133 166.583 106.582 166.025 105.094C165.466 103.62 164.692 102.317 163.704 101.183C162.687 100.022 161.498 99.1219 160.137 98.4843C158.719 97.8184 157.186 97.4855 155.539 97.4855C153.877 97.4855 152.352 97.8184 150.962 98.4843C149.601 99.1361 148.42 100.036 147.417 101.183C146.385 102.359 145.612 103.663 145.096 105.094Z" stroke="white" stroke-width="2" mask="url(#path-4-outside-1)"/>
<path d="M141.443 115.933C140.699 114.034 140.326 111.973 140.326 109.748C140.326 107.524 140.699 105.462 141.443 103.564C142.203 101.637 143.248 99.972 144.58 98.5694C145.941 97.1383 147.553 96.019 149.415 95.2114C151.277 94.4038 153.319 94 155.539 94C157.774 94 159.822 94.4038 161.684 95.2114C163.518 96.0048 165.122 97.1242 166.497 98.5694C167.858 100 168.911 101.665 169.656 103.564C170.401 105.462 170.773 107.524 170.773 109.748C170.773 111.661 170.494 113.446 169.935 115.104C169.362 116.79 168.574 118.299 167.572 119.631L172.32 123.818L170.021 126.474L165.144 122.202C163.826 123.265 162.372 124.08 160.782 124.647C159.149 125.227 157.401 125.518 155.539 125.518C153.362 125.518 151.32 125.107 149.415 124.285C147.539 123.478 145.927 122.365 144.58 120.949C143.263 119.56 142.217 117.888 141.443 115.933ZM145.096 105.094C144.552 106.596 144.28 108.147 144.28 109.748C144.28 111.349 144.552 112.901 145.096 114.403C145.626 115.862 146.4 117.173 147.417 118.334C148.42 119.482 149.601 120.382 150.962 121.034C152.352 121.699 153.877 122.032 155.539 122.032C156.842 122.032 158.06 121.827 159.192 121.416C160.323 121.005 161.34 120.438 162.243 119.716L157.924 115.89L160.266 113.191L164.649 117.102C165.351 116.067 165.896 114.927 166.282 113.68C166.669 112.419 166.863 111.109 166.863 109.748C166.863 108.133 166.583 106.582 166.025 105.094C165.466 103.62 164.692 102.317 163.704 101.183C162.687 100.022 161.498 99.1219 160.137 98.4843C158.719 97.8184 157.186 97.4855 155.539 97.4855C153.877 97.4855 152.352 97.8184 150.962 98.4843C149.601 99.1361 148.42 100.036 147.417 101.183C146.385 102.359 145.612 103.663 145.096 105.094Z" stroke="black" stroke-width="2" mask="url(#path-4-outside-1)"/>
<path d="M177.069 113.765V94.5101H180.765V113.361C180.765 114.608 180.901 115.749 181.173 116.783C181.445 117.831 181.896 118.752 182.527 119.546C183.157 120.353 183.938 120.963 184.869 121.374C185.843 121.813 186.982 122.032 188.285 122.032C189.589 122.032 190.727 121.813 191.702 121.374C192.633 120.963 193.413 120.353 194.044 119.546C194.674 118.752 195.125 117.831 195.397 116.783C195.67 115.749 195.806 114.608 195.806 113.361V94.5101H199.501V113.765C199.501 115.536 199.251 117.123 198.749 118.526C198.248 119.943 197.51 121.175 196.536 122.224C195.562 123.272 194.387 124.08 193.012 124.647C191.594 125.227 190.018 125.518 188.285 125.518C186.552 125.518 184.976 125.227 183.558 124.647C182.183 124.08 181.008 123.272 180.034 122.224C179.089 121.204 178.358 119.971 177.842 118.526C177.327 117.081 177.069 115.494 177.069 113.765Z" stroke="white" stroke-width="2" mask="url(#path-4-outside-1)"/>
<path d="M177.069 113.765V94.5101H180.765V113.361C180.765 114.608 180.901 115.749 181.173 116.783C181.445 117.831 181.896 118.752 182.527 119.546C183.157 120.353 183.938 120.963 184.869 121.374C185.843 121.813 186.982 122.032 188.285 122.032C189.589 122.032 190.727 121.813 191.702 121.374C192.633 120.963 193.413 120.353 194.044 119.546C194.674 118.752 195.125 117.831 195.397 116.783C195.67 115.749 195.806 114.608 195.806 113.361V94.5101H199.501V113.765C199.501 115.536 199.251 117.123 198.749 118.526C198.248 119.943 197.51 121.175 196.536 122.224C195.562 123.272 194.387 124.08 193.012 124.647C191.594 125.227 190.018 125.518 188.285 125.518C186.552 125.518 184.976 125.227 183.558 124.647C182.183 124.08 181.008 123.272 180.034 122.224C179.089 121.204 178.358 119.971 177.842 118.526C177.327 117.081 177.069 115.494 177.069 113.765Z" stroke="black" stroke-width="2" mask="url(#path-4-outside-1)"/>
<path d="M206.721 124.987V94.5101H224.491V97.9955H210.417V107.623H223.438V111.109H210.417V121.501H224.77V124.987H206.721Z" stroke="white" stroke-width="2" mask="url(#path-4-outside-1)"/>
<path d="M206.721 124.987V94.5101H224.491V97.9955H210.417V107.623H223.438V111.109H210.417V121.501H224.77V124.987H206.721Z" stroke="black" stroke-width="2" mask="url(#path-4-outside-1)"/>
<path d="M229.239 119.163L232.334 117.336C232.563 117.888 232.907 118.469 233.365 119.078C233.823 119.688 234.31 120.191 234.826 120.587C235.399 121.026 236.044 121.374 236.76 121.629C237.505 121.898 238.285 122.032 239.102 122.032C239.833 122.032 240.542 121.926 241.229 121.714C241.917 121.501 242.526 121.196 243.056 120.8C243.6 120.389 244.03 119.893 244.345 119.312C244.66 118.731 244.818 118.023 244.818 117.187C244.818 116.408 244.667 115.735 244.366 115.168C244.08 114.615 243.664 114.112 243.12 113.659C242.547 113.191 241.91 112.78 241.208 112.426L238.844 111.279C237.655 110.712 236.652 110.216 235.836 109.791C234.805 109.252 233.895 108.643 233.107 107.963C232.262 107.24 231.603 106.44 231.13 105.562C230.643 104.655 230.4 103.585 230.4 102.352C230.4 101.304 230.586 100.298 230.958 99.3345C231.345 98.3285 231.904 97.4359 232.634 96.6566C233.365 95.8773 234.282 95.2397 235.385 94.7438C236.502 94.2479 237.784 94 239.231 94C240.348 94 241.358 94.1346 242.261 94.4038C243.149 94.673 243.972 95.0272 244.732 95.4664C245.448 95.8773 246.092 96.3591 246.665 96.9116C247.267 97.4784 247.725 97.9884 248.041 98.4418L245.269 100.652C245.068 100.355 244.739 99.9791 244.28 99.5257C243.908 99.1573 243.45 98.8173 242.905 98.5056C242.361 98.1939 241.795 97.9459 241.208 97.7617C240.606 97.5776 239.947 97.4855 239.231 97.4855C238.386 97.4855 237.648 97.613 237.018 97.868C236.387 98.123 235.85 98.4702 235.406 98.9094C234.962 99.3486 234.633 99.8516 234.418 100.418C234.203 100.985 234.096 101.559 234.096 102.14C234.096 102.877 234.253 103.507 234.568 104.031C234.883 104.556 235.342 105.059 235.943 105.54C236.531 106.022 237.247 106.468 238.092 106.879C239.295 107.474 240.248 107.928 240.95 108.239C242.339 108.863 243.407 109.401 244.151 109.855C245.083 110.421 245.885 111.038 246.558 111.704C247.231 112.37 247.74 113.128 248.084 113.978C248.442 114.856 248.621 115.841 248.621 116.932C248.621 118.278 248.377 119.475 247.89 120.523C247.389 121.6 246.723 122.5 245.892 123.223C245.018 123.974 244.008 124.54 242.862 124.923C241.659 125.32 240.42 125.518 239.145 125.518C237.841 125.518 236.652 125.334 235.578 124.965C234.532 124.611 233.594 124.129 232.763 123.52C231.932 122.911 231.231 122.231 230.658 121.48C230.013 120.644 229.54 119.872 229.239 119.163Z" stroke="white" stroke-width="2" mask="url(#path-4-outside-1)"/>
<path d="M229.239 119.163L232.334 117.336C232.563 117.888 232.907 118.469 233.365 119.078C233.823 119.688 234.31 120.191 234.826 120.587C235.399 121.026 236.044 121.374 236.76 121.629C237.505 121.898 238.285 122.032 239.102 122.032C239.833 122.032 240.542 121.926 241.229 121.714C241.917 121.501 242.526 121.196 243.056 120.8C243.6 120.389 244.03 119.893 244.345 119.312C244.66 118.731 244.818 118.023 244.818 117.187C244.818 116.408 244.667 115.735 244.366 115.168C244.08 114.615 243.664 114.112 243.12 113.659C242.547 113.191 241.91 112.78 241.208 112.426L238.844 111.279C237.655 110.712 236.652 110.216 235.836 109.791C234.805 109.252 233.895 108.643 233.107 107.963C232.262 107.24 231.603 106.44 231.13 105.562C230.643 104.655 230.4 103.585 230.4 102.352C230.4 101.304 230.586 100.298 230.958 99.3345C231.345 98.3285 231.904 97.4359 232.634 96.6566C233.365 95.8773 234.282 95.2397 235.385 94.7438C236.502 94.2479 237.784 94 239.231 94C240.348 94 241.358 94.1346 242.261 94.4038C243.149 94.673 243.972 95.0272 244.732 95.4664C245.448 95.8773 246.092 96.3591 246.665 96.9116C247.267 97.4784 247.725 97.9884 248.041 98.4418L245.269 100.652C245.068 100.355 244.739 99.9791 244.28 99.5257C243.908 99.1573 243.45 98.8173 242.905 98.5056C242.361 98.1939 241.795 97.9459 241.208 97.7617C240.606 97.5776 239.947 97.4855 239.231 97.4855C238.386 97.4855 237.648 97.613 237.018 97.868C236.387 98.123 235.85 98.4702 235.406 98.9094C234.962 99.3486 234.633 99.8516 234.418 100.418C234.203 100.985 234.096 101.559 234.096 102.14C234.096 102.877 234.253 103.507 234.568 104.031C234.883 104.556 235.342 105.059 235.943 105.54C236.531 106.022 237.247 106.468 238.092 106.879C239.295 107.474 240.248 107.928 240.95 108.239C242.339 108.863 243.407 109.401 244.151 109.855C245.083 110.421 245.885 111.038 246.558 111.704C247.231 112.37 247.74 113.128 248.084 113.978C248.442 114.856 248.621 115.841 248.621 116.932C248.621 118.278 248.377 119.475 247.89 120.523C247.389 121.6 246.723 122.5 245.892 123.223C245.018 123.974 244.008 124.54 242.862 124.923C241.659 125.32 240.42 125.518 239.145 125.518C237.841 125.518 236.652 125.334 235.578 124.965C234.532 124.611 233.594 124.129 232.763 123.52C231.932 122.911 231.231 122.231 230.658 121.48C230.013 120.644 229.54 119.872 229.239 119.163Z" stroke="black" stroke-width="2" mask="url(#path-4-outside-1)"/>
<path d="M251.521 97.9955V94.5101H272.901V97.9955H264.048V124.987H260.353V97.9955H251.521Z" stroke="white" stroke-width="2" mask="url(#path-4-outside-1)"/>
<path d="M251.521 97.9955V94.5101H272.901V97.9955H264.048V124.987H260.353V97.9955H251.521Z" stroke="black" stroke-width="2" mask="url(#path-4-outside-1)"/>
<path d="M277.736 124.987V94.5101H281.431V124.987H277.736Z" stroke="white" stroke-width="2" mask="url(#path-4-outside-1)"/>
<path d="M277.736 124.987V94.5101H281.431V124.987H277.736Z" stroke="black" stroke-width="2" mask="url(#path-4-outside-1)"/>
<path d="M289.274 124.987V94.5101H293.099L309.601 118.887V94.5101H313.297V124.987H309.472L292.97 100.61V124.987H289.274Z" stroke="white" stroke-width="2" mask="url(#path-4-outside-1)"/>
<path d="M289.274 124.987V94.5101H293.099L309.601 118.887V94.5101H313.297V124.987H309.472L292.97 100.61V124.987H289.274Z" stroke="black" stroke-width="2" mask="url(#path-4-outside-1)"/>
<path d="M319.7 115.933C318.955 114.034 318.583 111.973 318.583 109.748C318.583 107.524 318.955 105.462 319.7 103.564C320.43 101.694 321.49 100.029 322.88 98.5694C324.241 97.1383 325.874 96.019 327.779 95.2114C329.699 94.4038 331.797 94 334.075 94C336.266 94 338.351 94.3684 340.327 95.1051C342.333 95.8561 343.944 96.9258 345.162 98.3143L342.519 100.865C341.574 99.887 340.349 99.0794 338.845 98.4418C337.341 97.8043 335.722 97.4855 333.989 97.4855C332.284 97.4855 330.723 97.8184 329.305 98.4843C327.929 99.1361 326.726 100.036 325.695 101.183C324.663 102.331 323.883 103.642 323.353 105.115C322.808 106.617 322.536 108.176 322.536 109.791C322.536 111.392 322.808 112.936 323.353 114.424C323.883 115.883 324.663 117.187 325.695 118.334C326.726 119.482 327.944 120.382 329.348 121.034C330.78 121.699 332.384 122.032 334.161 122.032C334.748 122.032 335.407 121.99 336.137 121.905C336.753 121.834 337.484 121.699 338.329 121.501C339.031 121.331 339.754 121.104 340.499 120.821C341.173 120.552 341.789 120.212 342.347 119.801V111.746H334.633V108.282H346V121.501C345.255 122.153 344.396 122.741 343.422 123.265C342.562 123.733 341.567 124.151 340.435 124.519C339.489 124.831 338.422 125.079 337.233 125.263C336.13 125.433 335.092 125.518 334.118 125.518C331.84 125.518 329.727 125.107 327.779 124.285C325.859 123.478 324.226 122.365 322.88 120.949C321.505 119.503 320.445 117.831 319.7 115.933Z" stroke="white" stroke-width="2" mask="url(#path-4-outside-1)"/>
<path d="M319.7 115.933C318.955 114.034 318.583 111.973 318.583 109.748C318.583 107.524 318.955 105.462 319.7 103.564C320.43 101.694 321.49 100.029 322.88 98.5694C324.241 97.1383 325.874 96.019 327.779 95.2114C329.699 94.4038 331.797 94 334.075 94C336.266 94 338.351 94.3684 340.327 95.1051C342.333 95.8561 343.944 96.9258 345.162 98.3143L342.519 100.865C341.574 99.887 340.349 99.0794 338.845 98.4418C337.341 97.8043 335.722 97.4855 333.989 97.4855C332.284 97.4855 330.723 97.8184 329.305 98.4843C327.929 99.1361 326.726 100.036 325.695 101.183C324.663 102.331 323.883 103.642 323.353 105.115C322.808 106.617 322.536 108.176 322.536 109.791C322.536 111.392 322.808 112.936 323.353 114.424C323.883 115.883 324.663 117.187 325.695 118.334C326.726 119.482 327.944 120.382 329.348 121.034C330.78 121.699 332.384 122.032 334.161 122.032C334.748 122.032 335.407 121.99 336.137 121.905C336.753 121.834 337.484 121.699 338.329 121.501C339.031 121.331 339.754 121.104 340.499 120.821C341.173 120.552 341.789 120.212 342.347 119.801V111.746H334.633V108.282H346V121.501C345.255 122.153 344.396 122.741 343.422 123.265C342.562 123.733 341.567 124.151 340.435 124.519C339.489 124.831 338.422 125.079 337.233 125.263C336.13 125.433 335.092 125.518 334.118 125.518C331.84 125.518 329.727 125.107 327.779 124.285C325.859 123.478 324.226 122.365 322.88 120.949C321.505 119.503 320.445 117.831 319.7 115.933Z" stroke="black" stroke-width="2" mask="url(#path-4-outside-1)"/>
<path d="M133.257 168.512L145.376 138.036H148.792L160.803 168.512H156.936L153.734 160.287H140.433L137.232 168.512H133.257ZM141.809 156.802H152.359L147.073 143.264L141.809 156.802Z" stroke="white" stroke-width="2" mask="url(#path-4-outside-1)"/>
<path d="M133.257 168.512L145.376 138.036H148.792L160.803 168.512H156.936L153.734 160.287H140.433L137.232 168.512H133.257ZM141.809 156.802H152.359L147.073 143.264L141.809 156.802Z" stroke="black" stroke-width="2" mask="url(#path-4-outside-1)"/>
<path d="M176.274 159.459C175.529 157.56 175.157 155.499 175.157 153.274C175.157 151.05 175.529 148.988 176.274 147.089C177.033 145.163 178.079 143.498 179.411 142.095C180.772 140.664 182.383 139.545 184.246 138.737C186.108 137.93 188.149 137.526 190.369 137.526C192.604 137.526 194.652 137.93 196.515 138.737C198.348 139.531 199.953 140.65 201.328 142.095C202.689 143.526 203.741 145.191 204.486 147.089C205.231 148.988 205.604 151.05 205.604 153.274C205.604 155.187 205.324 156.972 204.766 158.63C204.193 160.316 203.405 161.825 202.402 163.157L207.151 167.343L204.852 170L199.974 165.728C198.656 166.791 197.202 167.606 195.612 168.172C193.979 168.753 192.232 169.044 190.369 169.044C188.192 169.044 186.151 168.633 184.246 167.811C182.369 167.003 180.758 165.891 179.411 164.474C178.093 163.086 177.047 161.414 176.274 159.459ZM179.927 148.62C179.382 150.122 179.11 151.673 179.11 153.274C179.11 154.875 179.382 156.427 179.927 157.928C180.457 159.388 181.23 160.698 182.247 161.86C183.25 163.008 184.432 163.908 185.793 164.559C187.182 165.225 188.708 165.558 190.369 165.558C191.673 165.558 192.891 165.353 194.022 164.942C195.154 164.531 196.171 163.964 197.073 163.242L192.754 159.416L195.097 156.717L199.48 160.628C200.182 159.593 200.726 158.453 201.113 157.206C201.5 155.945 201.693 154.634 201.693 153.274C201.693 151.659 201.414 150.107 200.855 148.62C200.296 147.146 199.523 145.843 198.534 144.709C197.517 143.547 196.328 142.648 194.968 142.01C193.549 141.344 192.017 141.011 190.369 141.011C188.708 141.011 187.182 141.344 185.793 142.01C184.432 142.662 183.25 143.562 182.247 144.709C181.216 145.885 180.442 147.189 179.927 148.62Z" stroke="white" stroke-width="2" mask="url(#path-4-outside-1)"/>
<path d="M176.274 159.459C175.529 157.56 175.157 155.499 175.157 153.274C175.157 151.05 175.529 148.988 176.274 147.089C177.033 145.163 178.079 143.498 179.411 142.095C180.772 140.664 182.383 139.545 184.246 138.737C186.108 137.93 188.149 137.526 190.369 137.526C192.604 137.526 194.652 137.93 196.515 138.737C198.348 139.531 199.953 140.65 201.328 142.095C202.689 143.526 203.741 145.191 204.486 147.089C205.231 148.988 205.604 151.05 205.604 153.274C205.604 155.187 205.324 156.972 204.766 158.63C204.193 160.316 203.405 161.825 202.402 163.157L207.151 167.343L204.852 170L199.974 165.728C198.656 166.791 197.202 167.606 195.612 168.172C193.979 168.753 192.232 169.044 190.369 169.044C188.192 169.044 186.151 168.633 184.246 167.811C182.369 167.003 180.758 165.891 179.411 164.474C178.093 163.086 177.047 161.414 176.274 159.459ZM179.927 148.62C179.382 150.122 179.11 151.673 179.11 153.274C179.11 154.875 179.382 156.427 179.927 157.928C180.457 159.388 181.23 160.698 182.247 161.86C183.25 163.008 184.432 163.908 185.793 164.559C187.182 165.225 188.708 165.558 190.369 165.558C191.673 165.558 192.891 165.353 194.022 164.942C195.154 164.531 196.171 163.964 197.073 163.242L192.754 159.416L195.097 156.717L199.48 160.628C200.182 159.593 200.726 158.453 201.113 157.206C201.5 155.945 201.693 154.634 201.693 153.274C201.693 151.659 201.414 150.107 200.855 148.62C200.296 147.146 199.523 145.843 198.534 144.709C197.517 143.547 196.328 142.648 194.968 142.01C193.549 141.344 192.017 141.011 190.369 141.011C188.708 141.011 187.182 141.344 185.793 142.01C184.432 142.662 183.25 143.562 182.247 144.709C181.216 145.885 180.442 147.189 179.927 148.62Z" stroke="black" stroke-width="2" mask="url(#path-4-outside-1)"/>
<path d="M211.899 157.291V138.036H215.595V156.887C215.595 158.134 215.731 159.274 216.003 160.309C216.276 161.357 216.727 162.278 217.357 163.072C217.987 163.879 218.768 164.488 219.699 164.899C220.673 165.339 221.812 165.558 223.116 165.558C224.419 165.558 225.558 165.339 226.532 164.899C227.463 164.488 228.244 163.879 228.874 163.072C229.504 162.278 229.956 161.357 230.228 160.309C230.5 159.274 230.636 158.134 230.636 156.887V138.036H234.332V157.291C234.332 159.062 234.081 160.649 233.58 162.051C233.078 163.468 232.341 164.701 231.367 165.749C230.393 166.798 229.218 167.606 227.843 168.172C226.425 168.753 224.849 169.044 223.116 169.044C221.382 169.044 219.807 168.753 218.388 168.172C217.013 167.606 215.839 166.798 214.865 165.749C213.919 164.729 213.189 163.497 212.673 162.051C212.157 160.606 211.899 159.019 211.899 157.291Z" stroke="white" stroke-width="2" mask="url(#path-4-outside-1)"/>
<path d="M211.899 157.291V138.036H215.595V156.887C215.595 158.134 215.731 159.274 216.003 160.309C216.276 161.357 216.727 162.278 217.357 163.072C217.987 163.879 218.768 164.488 219.699 164.899C220.673 165.339 221.812 165.558 223.116 165.558C224.419 165.558 225.558 165.339 226.532 164.899C227.463 164.488 228.244 163.879 228.874 163.072C229.504 162.278 229.956 161.357 230.228 160.309C230.5 159.274 230.636 158.134 230.636 156.887V138.036H234.332V157.291C234.332 159.062 234.081 160.649 233.58 162.051C233.078 163.468 232.341 164.701 231.367 165.749C230.393 166.798 229.218 167.606 227.843 168.172C226.425 168.753 224.849 169.044 223.116 169.044C221.382 169.044 219.807 168.753 218.388 168.172C217.013 167.606 215.839 166.798 214.865 165.749C213.919 164.729 213.189 163.497 212.673 162.051C212.157 160.606 211.899 159.019 211.899 157.291Z" stroke="black" stroke-width="2" mask="url(#path-4-outside-1)"/>
<path d="M240.735 159.459C239.99 157.56 239.618 155.499 239.618 153.274C239.618 151.05 239.99 148.988 240.735 147.089C241.494 145.163 242.54 143.498 243.872 142.095C245.233 140.664 246.844 139.545 248.707 138.737C250.569 137.93 252.61 137.526 254.83 137.526C257.065 137.526 259.114 137.93 260.976 138.737C262.809 139.531 264.414 140.65 265.789 142.095C267.15 143.526 268.203 145.191 268.947 147.089C269.692 148.988 270.065 151.05 270.065 153.274C270.065 155.499 269.692 157.56 268.947 159.459C268.188 161.386 267.135 163.057 265.789 164.474C264.442 165.891 262.838 167.003 260.976 167.811C259.071 168.633 257.022 169.044 254.83 169.044C252.653 169.044 250.612 168.633 248.707 167.811C246.83 167.003 245.219 165.891 243.872 164.474C242.554 163.086 241.509 161.414 240.735 159.459ZM244.388 148.62C243.843 150.122 243.571 151.673 243.571 153.274C243.571 154.875 243.843 156.427 244.388 157.928C244.918 159.416 245.684 160.727 246.687 161.86C247.718 163.022 248.9 163.922 250.232 164.559C251.65 165.225 253.183 165.558 254.83 165.558C256.478 165.558 258.011 165.225 259.429 164.559C260.79 163.922 261.979 163.022 262.996 161.86C263.998 160.727 264.765 159.416 265.295 157.928C265.839 156.427 266.111 154.875 266.111 153.274C266.111 151.673 265.839 150.122 265.295 148.62C264.765 147.16 263.998 145.857 262.996 144.709C261.979 143.547 260.79 142.648 259.429 142.01C258.011 141.344 256.478 141.011 254.83 141.011C253.183 141.011 251.65 141.344 250.232 142.01C248.9 142.648 247.718 143.547 246.687 144.709C245.684 145.857 244.918 147.16 244.388 148.62Z" stroke="white" stroke-width="2" mask="url(#path-4-outside-1)"/>
<path d="M240.735 159.459C239.99 157.56 239.618 155.499 239.618 153.274C239.618 151.05 239.99 148.988 240.735 147.089C241.494 145.163 242.54 143.498 243.872 142.095C245.233 140.664 246.844 139.545 248.707 138.737C250.569 137.93 252.61 137.526 254.83 137.526C257.065 137.526 259.114 137.93 260.976 138.737C262.809 139.531 264.414 140.65 265.789 142.095C267.15 143.526 268.203 145.191 268.947 147.089C269.692 148.988 270.065 151.05 270.065 153.274C270.065 155.499 269.692 157.56 268.947 159.459C268.188 161.386 267.135 163.057 265.789 164.474C264.442 165.891 262.838 167.003 260.976 167.811C259.071 168.633 257.022 169.044 254.83 169.044C252.653 169.044 250.612 168.633 248.707 167.811C246.83 167.003 245.219 165.891 243.872 164.474C242.554 163.086 241.509 161.414 240.735 159.459ZM244.388 148.62C243.843 150.122 243.571 151.673 243.571 153.274C243.571 154.875 243.843 156.427 244.388 157.928C244.918 159.416 245.684 160.727 246.687 161.86C247.718 163.022 248.9 163.922 250.232 164.559C251.65 165.225 253.183 165.558 254.83 165.558C256.478 165.558 258.011 165.225 259.429 164.559C260.79 163.922 261.979 163.022 262.996 161.86C263.998 160.727 264.765 159.416 265.295 157.928C265.839 156.427 266.111 154.875 266.111 153.274C266.111 151.673 265.839 150.122 265.295 148.62C264.765 147.16 263.998 145.857 262.996 144.709C261.979 143.547 260.79 142.648 259.429 142.01C258.011 141.344 256.478 141.011 254.83 141.011C253.183 141.011 251.65 141.344 250.232 142.01C248.9 142.648 247.718 143.547 246.687 144.709C245.684 145.857 244.918 147.16 244.388 148.62Z" stroke="black" stroke-width="2" mask="url(#path-4-outside-1)"/>
<path d="M272.342 141.521V138.036H293.722V141.521H284.869V168.512H281.174V141.521H272.342Z" stroke="white" stroke-width="2" mask="url(#path-4-outside-1)"/>
<path d="M272.342 141.521V138.036H293.722V141.521H284.869V168.512H281.174V141.521H272.342Z" stroke="black" stroke-width="2" mask="url(#path-4-outside-1)"/>
<path d="M297.933 168.512V138.036H315.703V141.521H301.629V151.149H314.65V154.634H301.629V165.027H315.983V168.512H297.933Z" stroke="white" stroke-width="2" mask="url(#path-4-outside-1)"/>
<path d="M297.933 168.512V138.036H315.703V141.521H301.629V151.149H314.65V154.634H301.629V165.027H315.983V168.512H297.933Z" stroke="black" stroke-width="2" mask="url(#path-4-outside-1)"/>
</svg>
