<svg width="466" height="155" viewBox="0 0 466 155" fill="none" xmlns="http://www.w3.org/2000/svg">
<path d="M233.054 14.0479L106.848 25.3039L20.7143 55.5069L2 95.0622L56.6407 131.413L167.291 153.014H298.818L409.468 131.413L464.109 95.0622L445.388 55.5069L359.254 25.3039L233.054 14.0479Z" fill="black"/>
<path d="M233.054 14.0479L106.848 25.3039L20.7143 55.5069L2 95.0622L56.6407 131.413L167.291 153.014H298.818L409.468 131.413L464.109 95.0622L445.388 55.5069L359.254 25.3039L233.054 14.0479Z" stroke="black" stroke-width="2"/>
<path d="M233.054 2L106.848 13.2608L20.7143 43.4638L2 83.0144L56.6407 119.365L167.291 140.971H298.818L409.468 119.365L464.109 83.0144L445.388 43.4638L359.254 13.2608L233.054 2Z" fill="#0078BF"/>
<path d="M233.054 2L106.848 13.2608L20.7143 43.4638L2 83.0144L56.6407 119.365L167.291 140.971H298.818L409.468 119.365L464.109 83.0144L445.388 43.4638L359.254 13.2608L233.054 2Z" stroke="black" stroke-width="2"/>
<mask id="path-5-outside-1" maskUnits="userSpaceOnUse" x="103" y="30" width="260" height="95" fill="black">
<rect fill="white" x="103" y="30" width="260" height="95"/>
<path d="M105 31.5625H109.523L118.008 54.8594L126.258 31.5625H129.188L137.367 54.8594L145.945 31.5625H150.211L137.25 66.1328L127.617 39.6953L117.914 66.1328L105 31.5625Z"/>
<path d="M153.469 55.1875C152.656 53.0938 152.25 50.8203 152.25 48.3672C152.25 45.9141 152.656 43.6406 153.469 41.5469C154.297 39.4219 155.438 37.5859 156.891 36.0391C158.375 34.4609 160.133 33.2266 162.164 32.3359C164.195 31.4453 166.422 31 168.844 31C171.281 31 173.516 31.4453 175.547 32.3359C177.547 33.2109 179.297 34.4453 180.797 36.0391C182.281 37.6172 183.43 39.4531 184.242 41.5469C185.055 43.6406 185.461 45.9141 185.461 48.3672C185.461 50.8203 185.055 53.0938 184.242 55.1875C183.414 57.3125 182.266 59.1562 180.797 60.7188C179.328 62.2812 177.578 63.5078 175.547 64.3984C173.469 65.3047 171.234 65.7578 168.844 65.7578C166.469 65.7578 164.242 65.3047 162.164 64.3984C160.117 63.5078 158.359 62.2812 156.891 60.7188C155.453 59.1875 154.312 57.3438 153.469 55.1875ZM157.453 43.2344C156.859 44.8906 156.562 46.6016 156.562 48.3672C156.562 50.1328 156.859 51.8438 157.453 53.5C158.031 55.1406 158.867 56.5859 159.961 57.8359C161.086 59.1172 162.375 60.1094 163.828 60.8125C165.375 61.5469 167.047 61.9141 168.844 61.9141C170.641 61.9141 172.312 61.5469 173.859 60.8125C175.344 60.1094 176.641 59.1172 177.75 57.8359C178.844 56.5859 179.68 55.1406 180.258 53.5C180.852 51.8438 181.148 50.1328 181.148 48.3672C181.148 46.6016 180.852 44.8906 180.258 43.2344C179.68 41.625 178.844 40.1875 177.75 38.9219C176.641 37.6406 175.344 36.6484 173.859 35.9453C172.312 35.2109 170.641 34.8438 168.844 34.8438C167.047 34.8438 165.375 35.2109 163.828 35.9453C162.375 36.6484 161.086 37.6406 159.961 38.9219C158.867 40.1875 158.031 41.625 157.453 43.2344Z"/>
<path d="M191.203 65.1719V31.5625H199.945C201.586 31.5625 203.102 31.7969 204.492 32.2656C205.914 32.75 207.102 33.4219 208.055 34.2812C209.07 35.2031 209.836 36.2578 210.352 37.4453C210.898 38.7109 211.172 40.0938 211.172 41.5938C211.172 43.5469 210.789 45.1406 210.023 46.375C209.242 47.625 208.367 48.5859 207.398 49.2578C206.367 49.9766 205.438 50.4531 204.609 50.6875C203.703 50.9531 203.156 51.0938 202.969 51.1094L212.273 65.1719H207.422L198.352 51.4375H195.234V65.1719H191.203ZM195.234 47.5938H200.18C202.445 47.5938 204.172 47.0469 205.359 45.9531C206.547 44.8594 207.141 43.375 207.141 41.5C207.141 39.6406 206.547 38.1641 205.359 37.0703C204.156 35.9609 202.43 35.4062 200.18 35.4062H195.234V47.5938Z"/>
<path d="M217.734 65.1719V31.5625H221.766V47.3594L235.359 31.5625H240.492L226.266 47.9922L242.062 65.1719H236.602L221.766 49.1406V65.1719H217.734Z"/>
<path d="M244.453 58.75L247.828 56.7344C248.078 57.3438 248.453 57.9844 248.953 58.6562C249.453 59.3281 249.984 59.8828 250.547 60.3203C251.172 60.8047 251.875 61.1875 252.656 61.4688C253.469 61.7656 254.32 61.9141 255.211 61.9141C256.008 61.9141 256.781 61.7969 257.531 61.5625C258.281 61.3281 258.945 60.9922 259.523 60.5547C260.117 60.1016 260.586 59.5547 260.93 58.9141C261.273 58.2734 261.445 57.4922 261.445 56.5703C261.445 55.7109 261.281 54.9688 260.953 54.3438C260.641 53.7344 260.188 53.1797 259.594 52.6797C258.969 52.1641 258.273 51.7109 257.508 51.3203L254.93 50.0547C253.633 49.4297 252.539 48.8828 251.648 48.4141C250.523 47.8203 249.531 47.1484 248.672 46.3984C247.75 45.6016 247.031 44.7188 246.516 43.75C245.984 42.75 245.719 41.5703 245.719 40.2109C245.719 39.0547 245.922 37.9453 246.328 36.8828C246.75 35.7734 247.359 34.7891 248.156 33.9297C248.953 33.0703 249.953 32.3672 251.156 31.8203C252.375 31.2734 253.773 31 255.352 31C256.57 31 257.672 31.1484 258.656 31.4453C259.625 31.7422 260.523 32.1328 261.352 32.6172C262.133 33.0703 262.836 33.6016 263.461 34.2109C264.117 34.8359 264.617 35.3984 264.961 35.8984L261.938 38.3359C261.719 38.0078 261.359 37.5938 260.859 37.0938C260.453 36.6875 259.953 36.3125 259.359 35.9688C258.766 35.625 258.148 35.3516 257.508 35.1484C256.852 34.9453 256.133 34.8438 255.352 34.8438C254.43 34.8438 253.625 34.9844 252.938 35.2656C252.25 35.5469 251.664 35.9297 251.18 36.4141C250.695 36.8984 250.336 37.4531 250.102 38.0781C249.867 38.7031 249.75 39.3359 249.75 39.9766C249.75 40.7891 249.922 41.4844 250.266 42.0625C250.609 42.6406 251.109 43.1953 251.766 43.7266C252.406 44.2578 253.188 44.75 254.109 45.2031C255.422 45.8594 256.461 46.3594 257.227 46.7031C258.742 47.3906 259.906 47.9844 260.719 48.4844C261.734 49.1094 262.609 49.7891 263.344 50.5234C264.078 51.2578 264.633 52.0938 265.008 53.0312C265.398 54 265.594 55.0859 265.594 56.2891C265.594 57.7734 265.328 59.0938 264.797 60.25C264.25 61.4375 263.523 62.4297 262.617 63.2266C261.664 64.0547 260.562 64.6797 259.312 65.1016C258 65.5391 256.648 65.7578 255.258 65.7578C253.836 65.7578 252.539 65.5547 251.367 65.1484C250.227 64.7578 249.203 64.2266 248.297 63.5547C247.391 62.8828 246.625 62.1328 246 61.3047C245.297 60.3828 244.781 59.5312 244.453 58.75Z"/>
<path d="M272.016 65.1719V31.5625H276.047V46.0234H292.898V31.5625H296.93V65.1719H292.898V49.8672H276.047V65.1719H272.016Z"/>
<path d="M303.891 55.1875C303.078 53.0938 302.672 50.8203 302.672 48.3672C302.672 45.9141 303.078 43.6406 303.891 41.5469C304.719 39.4219 305.859 37.5859 307.312 36.0391C308.797 34.4609 310.555 33.2266 312.586 32.3359C314.617 31.4453 316.844 31 319.266 31C321.703 31 323.938 31.4453 325.969 32.3359C327.969 33.2109 329.719 34.4453 331.219 36.0391C332.703 37.6172 333.852 39.4531 334.664 41.5469C335.477 43.6406 335.883 45.9141 335.883 48.3672C335.883 50.8203 335.477 53.0938 334.664 55.1875C333.836 57.3125 332.688 59.1562 331.219 60.7188C329.75 62.2812 328 63.5078 325.969 64.3984C323.891 65.3047 321.656 65.7578 319.266 65.7578C316.891 65.7578 314.664 65.3047 312.586 64.3984C310.539 63.5078 308.781 62.2812 307.312 60.7188C305.875 59.1875 304.734 57.3438 303.891 55.1875ZM307.875 43.2344C307.281 44.8906 306.984 46.6016 306.984 48.3672C306.984 50.1328 307.281 51.8438 307.875 53.5C308.453 55.1406 309.289 56.5859 310.383 57.8359C311.508 59.1172 312.797 60.1094 314.25 60.8125C315.797 61.5469 317.469 61.9141 319.266 61.9141C321.062 61.9141 322.734 61.5469 324.281 60.8125C325.766 60.1094 327.062 59.1172 328.172 57.8359C329.266 56.5859 330.102 55.1406 330.68 53.5C331.273 51.8438 331.57 50.1328 331.57 48.3672C331.57 46.6016 331.273 44.8906 330.68 43.2344C330.102 41.625 329.266 40.1875 328.172 38.9219C327.062 37.6406 325.766 36.6484 324.281 35.9453C322.734 35.2109 321.062 34.8438 319.266 34.8438C317.469 34.8438 315.797 35.2109 314.25 35.9453C312.797 36.6484 311.508 37.6406 310.383 38.9219C309.289 40.1875 308.453 41.625 307.875 43.2344Z"/>
<path d="M341.625 65.1719V31.5625H350.32C353.82 31.5625 356.609 32.4453 358.688 34.2109C360.75 35.9766 361.781 38.4766 361.781 41.7109C361.781 44.9453 360.75 47.4375 358.688 49.1875C356.609 50.9531 353.82 51.8359 350.32 51.8359H345.656V65.1719H341.625ZM345.656 47.9922H350.062C352.375 47.9922 354.234 47.4766 355.641 46.4453C357.047 45.4141 357.75 43.8359 357.75 41.7109C357.75 39.5703 357.047 37.9844 355.641 36.9531C354.234 35.9219 352.375 35.4062 350.062 35.4062H345.656V47.9922Z"/>
<path d="M124.688 106.367C124.688 103.914 125.094 101.641 125.906 99.5469C126.734 97.4219 127.875 95.5859 129.328 94.0391C130.812 92.4609 132.57 91.2266 134.602 90.3359C136.633 89.4453 138.859 89 141.281 89C142.828 89 144.195 89.1562 145.383 89.4688C146.586 89.7812 147.711 90.1953 148.758 90.7109C149.789 91.2109 150.68 91.7578 151.43 92.3516C152.148 92.9141 152.781 93.5078 153.328 94.1328L150.562 96.7812C149.594 95.6562 148.305 94.7188 146.695 93.9688C145.086 93.2188 143.32 92.8438 141.398 92.8438C139.555 92.8438 137.859 93.2109 136.312 93.9453C134.828 94.6484 133.531 95.6406 132.422 96.9219C131.297 98.2188 130.453 99.6562 129.891 101.234C129.297 102.891 129 104.602 129 106.367C129 108.133 129.297 109.844 129.891 111.5C130.469 113.109 131.312 114.555 132.422 115.836C133.516 117.102 134.805 118.094 136.289 118.812C137.805 119.547 139.469 119.914 141.281 119.914C142.422 119.914 143.484 119.773 144.469 119.492C145.438 119.211 146.336 118.859 147.164 118.438C148.008 118 148.734 117.523 149.344 117.008C150.062 116.398 150.609 115.875 150.984 115.438L153.727 118.227C153.117 118.883 152.414 119.531 151.617 120.172C150.852 120.781 149.906 121.375 148.781 121.953C147.766 122.469 146.602 122.898 145.289 123.242C143.961 123.586 142.594 123.758 141.188 123.758C138.828 123.758 136.625 123.305 134.578 122.398C132.547 121.508 130.812 120.281 129.375 118.719C127.891 117.109 126.742 115.266 125.93 113.188C125.102 111.062 124.688 108.789 124.688 106.367Z"/>
<path d="M155.062 123.172L168.281 89.5625H172.008L185.109 123.172H180.891L177.398 114.102H162.891L159.398 123.172H155.062ZM164.391 110.258H175.898L170.133 95.3281L164.391 110.258Z"/>
<path d="M189.422 123.172V89.5625H193.453V119.328H208.523V123.172H189.422Z"/>
<path d="M212.859 123.172V89.5625H232.242V93.4062H216.891V104.023H231.094V107.867H216.891V119.328H232.547V123.172H212.859Z"/>
<path d="M238.969 123.172V89.5625H243.141L261.141 116.445V89.5625H265.172V123.172H261L243 96.2891V123.172H238.969Z"/>
<path d="M273.047 123.172V89.5625H282.703C285.266 89.5625 287.594 89.9922 289.688 90.8516C291.719 91.6797 293.461 92.8438 294.914 94.3438C296.32 95.7969 297.406 97.5625 298.172 99.6406C298.922 101.672 299.297 103.914 299.297 106.367C299.297 108.82 298.922 111.062 298.172 113.094C297.406 115.172 296.32 116.938 294.914 118.391C293.445 119.906 291.703 121.078 289.688 121.906C287.625 122.75 285.297 123.172 282.703 123.172H273.047ZM277.078 119.328H282.445C284.523 119.328 286.336 118.992 287.883 118.32C289.477 117.633 290.789 116.703 291.82 115.531C292.852 114.359 293.641 112.984 294.188 111.406C294.719 109.859 294.984 108.18 294.984 106.367C294.984 104.555 294.719 102.875 294.188 101.328C293.641 99.75 292.852 98.375 291.82 97.2031C290.789 96.0312 289.477 95.1016 287.883 94.4141C286.336 93.7422 284.523 93.4062 282.445 93.4062H277.078V119.328Z"/>
<path d="M301.5 123.172L314.719 89.5625H318.445L331.547 123.172H327.328L323.836 114.102H309.328L305.836 123.172H301.5ZM310.828 110.258H322.336L316.57 95.3281L310.828 110.258Z"/>
<path d="M335.859 123.172V89.5625H344.602C346.242 89.5625 347.758 89.7969 349.148 90.2656C350.57 90.75 351.758 91.4219 352.711 92.2812C353.727 93.2031 354.492 94.2578 355.008 95.4453C355.555 96.7109 355.828 98.0938 355.828 99.5938C355.828 101.547 355.445 103.141 354.68 104.375C353.898 105.625 353.023 106.586 352.055 107.258C351.023 107.977 350.094 108.453 349.266 108.688C348.359 108.953 347.812 109.094 347.625 109.109L356.93 123.172H352.078L343.008 109.438H339.891V123.172H335.859ZM339.891 105.594H344.836C347.102 105.594 348.828 105.047 350.016 103.953C351.203 102.859 351.797 101.375 351.797 99.5C351.797 97.6406 351.203 96.1641 350.016 95.0703C348.812 93.9609 347.086 93.4062 344.836 93.4062H339.891V105.594Z"/>
</mask>
<path d="M105 31.5625H109.523L118.008 54.8594L126.258 31.5625H129.188L137.367 54.8594L145.945 31.5625H150.211L137.25 66.1328L127.617 39.6953L117.914 66.1328L105 31.5625Z" fill="white"/>
<path d="M153.469 55.1875C152.656 53.0938 152.25 50.8203 152.25 48.3672C152.25 45.9141 152.656 43.6406 153.469 41.5469C154.297 39.4219 155.438 37.5859 156.891 36.0391C158.375 34.4609 160.133 33.2266 162.164 32.3359C164.195 31.4453 166.422 31 168.844 31C171.281 31 173.516 31.4453 175.547 32.3359C177.547 33.2109 179.297 34.4453 180.797 36.0391C182.281 37.6172 183.43 39.4531 184.242 41.5469C185.055 43.6406 185.461 45.9141 185.461 48.3672C185.461 50.8203 185.055 53.0938 184.242 55.1875C183.414 57.3125 182.266 59.1562 180.797 60.7188C179.328 62.2812 177.578 63.5078 175.547 64.3984C173.469 65.3047 171.234 65.7578 168.844 65.7578C166.469 65.7578 164.242 65.3047 162.164 64.3984C160.117 63.5078 158.359 62.2812 156.891 60.7188C155.453 59.1875 154.312 57.3438 153.469 55.1875ZM157.453 43.2344C156.859 44.8906 156.562 46.6016 156.562 48.3672C156.562 50.1328 156.859 51.8438 157.453 53.5C158.031 55.1406 158.867 56.5859 159.961 57.8359C161.086 59.1172 162.375 60.1094 163.828 60.8125C165.375 61.5469 167.047 61.9141 168.844 61.9141C170.641 61.9141 172.312 61.5469 173.859 60.8125C175.344 60.1094 176.641 59.1172 177.75 57.8359C178.844 56.5859 179.68 55.1406 180.258 53.5C180.852 51.8438 181.148 50.1328 181.148 48.3672C181.148 46.6016 180.852 44.8906 180.258 43.2344C179.68 41.625 178.844 40.1875 177.75 38.9219C176.641 37.6406 175.344 36.6484 173.859 35.9453C172.312 35.2109 170.641 34.8438 168.844 34.8438C167.047 34.8438 165.375 35.2109 163.828 35.9453C162.375 36.6484 161.086 37.6406 159.961 38.9219C158.867 40.1875 158.031 41.625 157.453 43.2344Z" fill="white"/>
<path d="M191.203 65.1719V31.5625H199.945C201.586 31.5625 203.102 31.7969 204.492 32.2656C205.914 32.75 207.102 33.4219 208.055 34.2812C209.07 35.2031 209.836 36.2578 210.352 37.4453C210.898 38.7109 211.172 40.0938 211.172 41.5938C211.172 43.5469 210.789 45.1406 210.023 46.375C209.242 47.625 208.367 48.5859 207.398 49.2578C206.367 49.9766 205.438 50.4531 204.609 50.6875C203.703 50.9531 203.156 51.0938 202.969 51.1094L212.273 65.1719H207.422L198.352 51.4375H195.234V65.1719H191.203ZM195.234 47.5938H200.18C202.445 47.5938 204.172 47.0469 205.359 45.9531C206.547 44.8594 207.141 43.375 207.141 41.5C207.141 39.6406 206.547 38.1641 205.359 37.0703C204.156 35.9609 202.43 35.4062 200.18 35.4062H195.234V47.5938Z" fill="white"/>
<path d="M217.734 65.1719V31.5625H221.766V47.3594L235.359 31.5625H240.492L226.266 47.9922L242.062 65.1719H236.602L221.766 49.1406V65.1719H217.734Z" fill="white"/>
<path d="M244.453 58.75L247.828 56.7344C248.078 57.3438 248.453 57.9844 248.953 58.6562C249.453 59.3281 249.984 59.8828 250.547 60.3203C251.172 60.8047 251.875 61.1875 252.656 61.4688C253.469 61.7656 254.32 61.9141 255.211 61.9141C256.008 61.9141 256.781 61.7969 257.531 61.5625C258.281 61.3281 258.945 60.9922 259.523 60.5547C260.117 60.1016 260.586 59.5547 260.93 58.9141C261.273 58.2734 261.445 57.4922 261.445 56.5703C261.445 55.7109 261.281 54.9688 260.953 54.3438C260.641 53.7344 260.188 53.1797 259.594 52.6797C258.969 52.1641 258.273 51.7109 257.508 51.3203L254.93 50.0547C253.633 49.4297 252.539 48.8828 251.648 48.4141C250.523 47.8203 249.531 47.1484 248.672 46.3984C247.75 45.6016 247.031 44.7188 246.516 43.75C245.984 42.75 245.719 41.5703 245.719 40.2109C245.719 39.0547 245.922 37.9453 246.328 36.8828C246.75 35.7734 247.359 34.7891 248.156 33.9297C248.953 33.0703 249.953 32.3672 251.156 31.8203C252.375 31.2734 253.773 31 255.352 31C256.57 31 257.672 31.1484 258.656 31.4453C259.625 31.7422 260.523 32.1328 261.352 32.6172C262.133 33.0703 262.836 33.6016 263.461 34.2109C264.117 34.8359 264.617 35.3984 264.961 35.8984L261.938 38.3359C261.719 38.0078 261.359 37.5938 260.859 37.0938C260.453 36.6875 259.953 36.3125 259.359 35.9688C258.766 35.625 258.148 35.3516 257.508 35.1484C256.852 34.9453 256.133 34.8438 255.352 34.8438C254.43 34.8438 253.625 34.9844 252.938 35.2656C252.25 35.5469 251.664 35.9297 251.18 36.4141C250.695 36.8984 250.336 37.4531 250.102 38.0781C249.867 38.7031 249.75 39.3359 249.75 39.9766C249.75 40.7891 249.922 41.4844 250.266 42.0625C250.609 42.6406 251.109 43.1953 251.766 43.7266C252.406 44.2578 253.188 44.75 254.109 45.2031C255.422 45.8594 256.461 46.3594 257.227 46.7031C258.742 47.3906 259.906 47.9844 260.719 48.4844C261.734 49.1094 262.609 49.7891 263.344 50.5234C264.078 51.2578 264.633 52.0938 265.008 53.0312C265.398 54 265.594 55.0859 265.594 56.2891C265.594 57.7734 265.328 59.0938 264.797 60.25C264.25 61.4375 263.523 62.4297 262.617 63.2266C261.664 64.0547 260.562 64.6797 259.312 65.1016C258 65.5391 256.648 65.7578 255.258 65.7578C253.836 65.7578 252.539 65.5547 251.367 65.1484C250.227 64.7578 249.203 64.2266 248.297 63.5547C247.391 62.8828 246.625 62.1328 246 61.3047C245.297 60.3828 244.781 59.5312 244.453 58.75Z" fill="white"/>
<path d="M272.016 65.1719V31.5625H276.047V46.0234H292.898V31.5625H296.93V65.1719H292.898V49.8672H276.047V65.1719H272.016Z" fill="white"/>
<path d="M303.891 55.1875C303.078 53.0938 302.672 50.8203 302.672 48.3672C302.672 45.9141 303.078 43.6406 303.891 41.5469C304.719 39.4219 305.859 37.5859 307.312 36.0391C308.797 34.4609 310.555 33.2266 312.586 32.3359C314.617 31.4453 316.844 31 319.266 31C321.703 31 323.938 31.4453 325.969 32.3359C327.969 33.2109 329.719 34.4453 331.219 36.0391C332.703 37.6172 333.852 39.4531 334.664 41.5469C335.477 43.6406 335.883 45.9141 335.883 48.3672C335.883 50.8203 335.477 53.0938 334.664 55.1875C333.836 57.3125 332.688 59.1562 331.219 60.7188C329.75 62.2812 328 63.5078 325.969 64.3984C323.891 65.3047 321.656 65.7578 319.266 65.7578C316.891 65.7578 314.664 65.3047 312.586 64.3984C310.539 63.5078 308.781 62.2812 307.312 60.7188C305.875 59.1875 304.734 57.3438 303.891 55.1875ZM307.875 43.2344C307.281 44.8906 306.984 46.6016 306.984 48.3672C306.984 50.1328 307.281 51.8438 307.875 53.5C308.453 55.1406 309.289 56.5859 310.383 57.8359C311.508 59.1172 312.797 60.1094 314.25 60.8125C315.797 61.5469 317.469 61.9141 319.266 61.9141C321.062 61.9141 322.734 61.5469 324.281 60.8125C325.766 60.1094 327.062 59.1172 328.172 57.8359C329.266 56.5859 330.102 55.1406 330.68 53.5C331.273 51.8438 331.57 50.1328 331.57 48.3672C331.57 46.6016 331.273 44.8906 330.68 43.2344C330.102 41.625 329.266 40.1875 328.172 38.9219C327.062 37.6406 325.766 36.6484 324.281 35.9453C322.734 35.2109 321.062 34.8438 319.266 34.8438C317.469 34.8438 315.797 35.2109 314.25 35.9453C312.797 36.6484 311.508 37.6406 310.383 38.9219C309.289 40.1875 308.453 41.625 307.875 43.2344Z" fill="white"/>
<path d="M341.625 65.1719V31.5625H350.32C353.82 31.5625 356.609 32.4453 358.688 34.2109C360.75 35.9766 361.781 38.4766 361.781 41.7109C361.781 44.9453 360.75 47.4375 358.688 49.1875C356.609 50.9531 353.82 51.8359 350.32 51.8359H345.656V65.1719H341.625ZM345.656 47.9922H350.062C352.375 47.9922 354.234 47.4766 355.641 46.4453C357.047 45.4141 357.75 43.8359 357.75 41.7109C357.75 39.5703 357.047 37.9844 355.641 36.9531C354.234 35.9219 352.375 35.4062 350.062 35.4062H345.656V47.9922Z" fill="white"/>
<path d="M124.688 106.367C124.688 103.914 125.094 101.641 125.906 99.5469C126.734 97.4219 127.875 95.5859 129.328 94.0391C130.812 92.4609 132.57 91.2266 134.602 90.3359C136.633 89.4453 138.859 89 141.281 89C142.828 89 144.195 89.1562 145.383 89.4688C146.586 89.7812 147.711 90.1953 148.758 90.7109C149.789 91.2109 150.68 91.7578 151.43 92.3516C152.148 92.9141 152.781 93.5078 153.328 94.1328L150.562 96.7812C149.594 95.6562 148.305 94.7188 146.695 93.9688C145.086 93.2188 143.32 92.8438 141.398 92.8438C139.555 92.8438 137.859 93.2109 136.312 93.9453C134.828 94.6484 133.531 95.6406 132.422 96.9219C131.297 98.2188 130.453 99.6562 129.891 101.234C129.297 102.891 129 104.602 129 106.367C129 108.133 129.297 109.844 129.891 111.5C130.469 113.109 131.312 114.555 132.422 115.836C133.516 117.102 134.805 118.094 136.289 118.812C137.805 119.547 139.469 119.914 141.281 119.914C142.422 119.914 143.484 119.773 144.469 119.492C145.438 119.211 146.336 118.859 147.164 118.438C148.008 118 148.734 117.523 149.344 117.008C150.062 116.398 150.609 115.875 150.984 115.438L153.727 118.227C153.117 118.883 152.414 119.531 151.617 120.172C150.852 120.781 149.906 121.375 148.781 121.953C147.766 122.469 146.602 122.898 145.289 123.242C143.961 123.586 142.594 123.758 141.188 123.758C138.828 123.758 136.625 123.305 134.578 122.398C132.547 121.508 130.812 120.281 129.375 118.719C127.891 117.109 126.742 115.266 125.93 113.188C125.102 111.062 124.688 108.789 124.688 106.367Z" fill="white"/>
<path d="M155.062 123.172L168.281 89.5625H172.008L185.109 123.172H180.891L177.398 114.102H162.891L159.398 123.172H155.062ZM164.391 110.258H175.898L170.133 95.3281L164.391 110.258Z" fill="white"/>
<path d="M189.422 123.172V89.5625H193.453V119.328H208.523V123.172H189.422Z" fill="white"/>
<path d="M212.859 123.172V89.5625H232.242V93.4062H216.891V104.023H231.094V107.867H216.891V119.328H232.547V123.172H212.859Z" fill="white"/>
<path d="M238.969 123.172V89.5625H243.141L261.141 116.445V89.5625H265.172V123.172H261L243 96.2891V123.172H238.969Z" fill="white"/>
<path d="M273.047 123.172V89.5625H282.703C285.266 89.5625 287.594 89.9922 289.688 90.8516C291.719 91.6797 293.461 92.8438 294.914 94.3438C296.32 95.7969 297.406 97.5625 298.172 99.6406C298.922 101.672 299.297 103.914 299.297 106.367C299.297 108.82 298.922 111.062 298.172 113.094C297.406 115.172 296.32 116.938 294.914 118.391C293.445 119.906 291.703 121.078 289.688 121.906C287.625 122.75 285.297 123.172 282.703 123.172H273.047ZM277.078 119.328H282.445C284.523 119.328 286.336 118.992 287.883 118.32C289.477 117.633 290.789 116.703 291.82 115.531C292.852 114.359 293.641 112.984 294.188 111.406C294.719 109.859 294.984 108.18 294.984 106.367C294.984 104.555 294.719 102.875 294.188 101.328C293.641 99.75 292.852 98.375 291.82 97.2031C290.789 96.0312 289.477 95.1016 287.883 94.4141C286.336 93.7422 284.523 93.4062 282.445 93.4062H277.078V119.328Z" fill="white"/>
<path d="M301.5 123.172L314.719 89.5625H318.445L331.547 123.172H327.328L323.836 114.102H309.328L305.836 123.172H301.5ZM310.828 110.258H322.336L316.57 95.3281L310.828 110.258Z" fill="white"/>
<path d="M335.859 123.172V89.5625H344.602C346.242 89.5625 347.758 89.7969 349.148 90.2656C350.57 90.75 351.758 91.4219 352.711 92.2812C353.727 93.2031 354.492 94.2578 355.008 95.4453C355.555 96.7109 355.828 98.0938 355.828 99.5938C355.828 101.547 355.445 103.141 354.68 104.375C353.898 105.625 353.023 106.586 352.055 107.258C351.023 107.977 350.094 108.453 349.266 108.688C348.359 108.953 347.812 109.094 347.625 109.109L356.93 123.172H352.078L343.008 109.438H339.891V123.172H335.859ZM339.891 105.594H344.836C347.102 105.594 348.828 105.047 350.016 103.953C351.203 102.859 351.797 101.375 351.797 99.5C351.797 97.6406 351.203 96.1641 350.016 95.0703C348.812 93.9609 347.086 93.4062 344.836 93.4062H339.891V105.594Z" fill="white"/>
<path d="M105 31.5625H109.523L118.008 54.8594L126.258 31.5625H129.188L137.367 54.8594L145.945 31.5625H150.211L137.25 66.1328L127.617 39.6953L117.914 66.1328L105 31.5625Z" stroke="white" stroke-width="2" mask="url(#path-5-outside-1)"/>
<path d="M105 31.5625H109.523L118.008 54.8594L126.258 31.5625H129.188L137.367 54.8594L145.945 31.5625H150.211L137.25 66.1328L127.617 39.6953L117.914 66.1328L105 31.5625Z" stroke="white" stroke-width="2" mask="url(#path-5-outside-1)"/>
<path d="M105 31.5625H109.523L118.008 54.8594L126.258 31.5625H129.188L137.367 54.8594L145.945 31.5625H150.211L137.25 66.1328L127.617 39.6953L117.914 66.1328L105 31.5625Z" stroke="black" stroke-width="2" mask="url(#path-5-outside-1)"/>
<path d="M153.469 55.1875C152.656 53.0938 152.25 50.8203 152.25 48.3672C152.25 45.9141 152.656 43.6406 153.469 41.5469C154.297 39.4219 155.438 37.5859 156.891 36.0391C158.375 34.4609 160.133 33.2266 162.164 32.3359C164.195 31.4453 166.422 31 168.844 31C171.281 31 173.516 31.4453 175.547 32.3359C177.547 33.2109 179.297 34.4453 180.797 36.0391C182.281 37.6172 183.43 39.4531 184.242 41.5469C185.055 43.6406 185.461 45.9141 185.461 48.3672C185.461 50.8203 185.055 53.0938 184.242 55.1875C183.414 57.3125 182.266 59.1562 180.797 60.7188C179.328 62.2812 177.578 63.5078 175.547 64.3984C173.469 65.3047 171.234 65.7578 168.844 65.7578C166.469 65.7578 164.242 65.3047 162.164 64.3984C160.117 63.5078 158.359 62.2812 156.891 60.7188C155.453 59.1875 154.312 57.3438 153.469 55.1875ZM157.453 43.2344C156.859 44.8906 156.562 46.6016 156.562 48.3672C156.562 50.1328 156.859 51.8438 157.453 53.5C158.031 55.1406 158.867 56.5859 159.961 57.8359C161.086 59.1172 162.375 60.1094 163.828 60.8125C165.375 61.5469 167.047 61.9141 168.844 61.9141C170.641 61.9141 172.312 61.5469 173.859 60.8125C175.344 60.1094 176.641 59.1172 177.75 57.8359C178.844 56.5859 179.68 55.1406 180.258 53.5C180.852 51.8438 181.148 50.1328 181.148 48.3672C181.148 46.6016 180.852 44.8906 180.258 43.2344C179.68 41.625 178.844 40.1875 177.75 38.9219C176.641 37.6406 175.344 36.6484 173.859 35.9453C172.312 35.2109 170.641 34.8438 168.844 34.8438C167.047 34.8438 165.375 35.2109 163.828 35.9453C162.375 36.6484 161.086 37.6406 159.961 38.9219C158.867 40.1875 158.031 41.625 157.453 43.2344Z" stroke="white" stroke-width="2" mask="url(#path-5-outside-1)"/>
<path d="M153.469 55.1875C152.656 53.0938 152.25 50.8203 152.25 48.3672C152.25 45.9141 152.656 43.6406 153.469 41.5469C154.297 39.4219 155.438 37.5859 156.891 36.0391C158.375 34.4609 160.133 33.2266 162.164 32.3359C164.195 31.4453 166.422 31 168.844 31C171.281 31 173.516 31.4453 175.547 32.3359C177.547 33.2109 179.297 34.4453 180.797 36.0391C182.281 37.6172 183.43 39.4531 184.242 41.5469C185.055 43.6406 185.461 45.9141 185.461 48.3672C185.461 50.8203 185.055 53.0938 184.242 55.1875C183.414 57.3125 182.266 59.1562 180.797 60.7188C179.328 62.2812 177.578 63.5078 175.547 64.3984C173.469 65.3047 171.234 65.7578 168.844 65.7578C166.469 65.7578 164.242 65.3047 162.164 64.3984C160.117 63.5078 158.359 62.2812 156.891 60.7188C155.453 59.1875 154.312 57.3438 153.469 55.1875ZM157.453 43.2344C156.859 44.8906 156.562 46.6016 156.562 48.3672C156.562 50.1328 156.859 51.8438 157.453 53.5C158.031 55.1406 158.867 56.5859 159.961 57.8359C161.086 59.1172 162.375 60.1094 163.828 60.8125C165.375 61.5469 167.047 61.9141 168.844 61.9141C170.641 61.9141 172.312 61.5469 173.859 60.8125C175.344 60.1094 176.641 59.1172 177.75 57.8359C178.844 56.5859 179.68 55.1406 180.258 53.5C180.852 51.8438 181.148 50.1328 181.148 48.3672C181.148 46.6016 180.852 44.8906 180.258 43.2344C179.68 41.625 178.844 40.1875 177.75 38.9219C176.641 37.6406 175.344 36.6484 173.859 35.9453C172.312 35.2109 170.641 34.8438 168.844 34.8438C167.047 34.8438 165.375 35.2109 163.828 35.9453C162.375 36.6484 161.086 37.6406 159.961 38.9219C158.867 40.1875 158.031 41.625 157.453 43.2344Z" stroke="white" stroke-width="2" mask="url(#path-5-outside-1)"/>
<path d="M153.469 55.1875C152.656 53.0938 152.25 50.8203 152.25 48.3672C152.25 45.9141 152.656 43.6406 153.469 41.5469C154.297 39.4219 155.438 37.5859 156.891 36.0391C158.375 34.4609 160.133 33.2266 162.164 32.3359C164.195 31.4453 166.422 31 168.844 31C171.281 31 173.516 31.4453 175.547 32.3359C177.547 33.2109 179.297 34.4453 180.797 36.0391C182.281 37.6172 183.43 39.4531 184.242 41.5469C185.055 43.6406 185.461 45.9141 185.461 48.3672C185.461 50.8203 185.055 53.0938 184.242 55.1875C183.414 57.3125 182.266 59.1562 180.797 60.7188C179.328 62.2812 177.578 63.5078 175.547 64.3984C173.469 65.3047 171.234 65.7578 168.844 65.7578C166.469 65.7578 164.242 65.3047 162.164 64.3984C160.117 63.5078 158.359 62.2812 156.891 60.7188C155.453 59.1875 154.312 57.3438 153.469 55.1875ZM157.453 43.2344C156.859 44.8906 156.562 46.6016 156.562 48.3672C156.562 50.1328 156.859 51.8438 157.453 53.5C158.031 55.1406 158.867 56.5859 159.961 57.8359C161.086 59.1172 162.375 60.1094 163.828 60.8125C165.375 61.5469 167.047 61.9141 168.844 61.9141C170.641 61.9141 172.312 61.5469 173.859 60.8125C175.344 60.1094 176.641 59.1172 177.75 57.8359C178.844 56.5859 179.68 55.1406 180.258 53.5C180.852 51.8438 181.148 50.1328 181.148 48.3672C181.148 46.6016 180.852 44.8906 180.258 43.2344C179.68 41.625 178.844 40.1875 177.75 38.9219C176.641 37.6406 175.344 36.6484 173.859 35.9453C172.312 35.2109 170.641 34.8438 168.844 34.8438C167.047 34.8438 165.375 35.2109 163.828 35.9453C162.375 36.6484 161.086 37.6406 159.961 38.9219C158.867 40.1875 158.031 41.625 157.453 43.2344Z" stroke="black" stroke-width="2" mask="url(#path-5-outside-1)"/>
<path d="M191.203 65.1719V31.5625H199.945C201.586 31.5625 203.102 31.7969 204.492 32.2656C205.914 32.75 207.102 33.4219 208.055 34.2812C209.07 35.2031 209.836 36.2578 210.352 37.4453C210.898 38.7109 211.172 40.0938 211.172 41.5938C211.172 43.5469 210.789 45.1406 210.023 46.375C209.242 47.625 208.367 48.5859 207.398 49.2578C206.367 49.9766 205.438 50.4531 204.609 50.6875C203.703 50.9531 203.156 51.0938 202.969 51.1094L212.273 65.1719H207.422L198.352 51.4375H195.234V65.1719H191.203ZM195.234 47.5938H200.18C202.445 47.5938 204.172 47.0469 205.359 45.9531C206.547 44.8594 207.141 43.375 207.141 41.5C207.141 39.6406 206.547 38.1641 205.359 37.0703C204.156 35.9609 202.43 35.4062 200.18 35.4062H195.234V47.5938Z" stroke="white" stroke-width="2" mask="url(#path-5-outside-1)"/>
<path d="M191.203 65.1719V31.5625H199.945C201.586 31.5625 203.102 31.7969 204.492 32.2656C205.914 32.75 207.102 33.4219 208.055 34.2812C209.07 35.2031 209.836 36.2578 210.352 37.4453C210.898 38.7109 211.172 40.0938 211.172 41.5938C211.172 43.5469 210.789 45.1406 210.023 46.375C209.242 47.625 208.367 48.5859 207.398 49.2578C206.367 49.9766 205.438 50.4531 204.609 50.6875C203.703 50.9531 203.156 51.0938 202.969 51.1094L212.273 65.1719H207.422L198.352 51.4375H195.234V65.1719H191.203ZM195.234 47.5938H200.18C202.445 47.5938 204.172 47.0469 205.359 45.9531C206.547 44.8594 207.141 43.375 207.141 41.5C207.141 39.6406 206.547 38.1641 205.359 37.0703C204.156 35.9609 202.43 35.4062 200.18 35.4062H195.234V47.5938Z" stroke="white" stroke-width="2" mask="url(#path-5-outside-1)"/>
<path d="M191.203 65.1719V31.5625H199.945C201.586 31.5625 203.102 31.7969 204.492 32.2656C205.914 32.75 207.102 33.4219 208.055 34.2812C209.07 35.2031 209.836 36.2578 210.352 37.4453C210.898 38.7109 211.172 40.0938 211.172 41.5938C211.172 43.5469 210.789 45.1406 210.023 46.375C209.242 47.625 208.367 48.5859 207.398 49.2578C206.367 49.9766 205.438 50.4531 204.609 50.6875C203.703 50.9531 203.156 51.0938 202.969 51.1094L212.273 65.1719H207.422L198.352 51.4375H195.234V65.1719H191.203ZM195.234 47.5938H200.18C202.445 47.5938 204.172 47.0469 205.359 45.9531C206.547 44.8594 207.141 43.375 207.141 41.5C207.141 39.6406 206.547 38.1641 205.359 37.0703C204.156 35.9609 202.43 35.4062 200.18 35.4062H195.234V47.5938Z" stroke="black" stroke-width="2" mask="url(#path-5-outside-1)"/>
<path d="M217.734 65.1719V31.5625H221.766V47.3594L235.359 31.5625H240.492L226.266 47.9922L242.062 65.1719H236.602L221.766 49.1406V65.1719H217.734Z" stroke="white" stroke-width="2" mask="url(#path-5-outside-1)"/>
<path d="M217.734 65.1719V31.5625H221.766V47.3594L235.359 31.5625H240.492L226.266 47.9922L242.062 65.1719H236.602L221.766 49.1406V65.1719H217.734Z" stroke="white" stroke-width="2" mask="url(#path-5-outside-1)"/>
<path d="M217.734 65.1719V31.5625H221.766V47.3594L235.359 31.5625H240.492L226.266 47.9922L242.062 65.1719H236.602L221.766 49.1406V65.1719H217.734Z" stroke="black" stroke-width="2" mask="url(#path-5-outside-1)"/>
<path d="M244.453 58.75L247.828 56.7344C248.078 57.3438 248.453 57.9844 248.953 58.6562C249.453 59.3281 249.984 59.8828 250.547 60.3203C251.172 60.8047 251.875 61.1875 252.656 61.4688C253.469 61.7656 254.32 61.9141 255.211 61.9141C256.008 61.9141 256.781 61.7969 257.531 61.5625C258.281 61.3281 258.945 60.9922 259.523 60.5547C260.117 60.1016 260.586 59.5547 260.93 58.9141C261.273 58.2734 261.445 57.4922 261.445 56.5703C261.445 55.7109 261.281 54.9688 260.953 54.3438C260.641 53.7344 260.188 53.1797 259.594 52.6797C258.969 52.1641 258.273 51.7109 257.508 51.3203L254.93 50.0547C253.633 49.4297 252.539 48.8828 251.648 48.4141C250.523 47.8203 249.531 47.1484 248.672 46.3984C247.75 45.6016 247.031 44.7188 246.516 43.75C245.984 42.75 245.719 41.5703 245.719 40.2109C245.719 39.0547 245.922 37.9453 246.328 36.8828C246.75 35.7734 247.359 34.7891 248.156 33.9297C248.953 33.0703 249.953 32.3672 251.156 31.8203C252.375 31.2734 253.773 31 255.352 31C256.57 31 257.672 31.1484 258.656 31.4453C259.625 31.7422 260.523 32.1328 261.352 32.6172C262.133 33.0703 262.836 33.6016 263.461 34.2109C264.117 34.8359 264.617 35.3984 264.961 35.8984L261.938 38.3359C261.719 38.0078 261.359 37.5938 260.859 37.0938C260.453 36.6875 259.953 36.3125 259.359 35.9688C258.766 35.625 258.148 35.3516 257.508 35.1484C256.852 34.9453 256.133 34.8438 255.352 34.8438C254.43 34.8438 253.625 34.9844 252.938 35.2656C252.25 35.5469 251.664 35.9297 251.18 36.4141C250.695 36.8984 250.336 37.4531 250.102 38.0781C249.867 38.7031 249.75 39.3359 249.75 39.9766C249.75 40.7891 249.922 41.4844 250.266 42.0625C250.609 42.6406 251.109 43.1953 251.766 43.7266C252.406 44.2578 253.188 44.75 254.109 45.2031C255.422 45.8594 256.461 46.3594 257.227 46.7031C258.742 47.3906 259.906 47.9844 260.719 48.4844C261.734 49.1094 262.609 49.7891 263.344 50.5234C264.078 51.2578 264.633 52.0938 265.008 53.0312C265.398 54 265.594 55.0859 265.594 56.2891C265.594 57.7734 265.328 59.0938 264.797 60.25C264.25 61.4375 263.523 62.4297 262.617 63.2266C261.664 64.0547 260.562 64.6797 259.312 65.1016C258 65.5391 256.648 65.7578 255.258 65.7578C253.836 65.7578 252.539 65.5547 251.367 65.1484C250.227 64.7578 249.203 64.2266 248.297 63.5547C247.391 62.8828 246.625 62.1328 246 61.3047C245.297 60.3828 244.781 59.5312 244.453 58.75Z" stroke="white" stroke-width="2" mask="url(#path-5-outside-1)"/>
<path d="M244.453 58.75L247.828 56.7344C248.078 57.3438 248.453 57.9844 248.953 58.6562C249.453 59.3281 249.984 59.8828 250.547 60.3203C251.172 60.8047 251.875 61.1875 252.656 61.4688C253.469 61.7656 254.32 61.9141 255.211 61.9141C256.008 61.9141 256.781 61.7969 257.531 61.5625C258.281 61.3281 258.945 60.9922 259.523 60.5547C260.117 60.1016 260.586 59.5547 260.93 58.9141C261.273 58.2734 261.445 57.4922 261.445 56.5703C261.445 55.7109 261.281 54.9688 260.953 54.3438C260.641 53.7344 260.188 53.1797 259.594 52.6797C258.969 52.1641 258.273 51.7109 257.508 51.3203L254.93 50.0547C253.633 49.4297 252.539 48.8828 251.648 48.4141C250.523 47.8203 249.531 47.1484 248.672 46.3984C247.75 45.6016 247.031 44.7188 246.516 43.75C245.984 42.75 245.719 41.5703 245.719 40.2109C245.719 39.0547 245.922 37.9453 246.328 36.8828C246.75 35.7734 247.359 34.7891 248.156 33.9297C248.953 33.0703 249.953 32.3672 251.156 31.8203C252.375 31.2734 253.773 31 255.352 31C256.57 31 257.672 31.1484 258.656 31.4453C259.625 31.7422 260.523 32.1328 261.352 32.6172C262.133 33.0703 262.836 33.6016 263.461 34.2109C264.117 34.8359 264.617 35.3984 264.961 35.8984L261.938 38.3359C261.719 38.0078 261.359 37.5938 260.859 37.0938C260.453 36.6875 259.953 36.3125 259.359 35.9688C258.766 35.625 258.148 35.3516 257.508 35.1484C256.852 34.9453 256.133 34.8438 255.352 34.8438C254.43 34.8438 253.625 34.9844 252.938 35.2656C252.25 35.5469 251.664 35.9297 251.18 36.4141C250.695 36.8984 250.336 37.4531 250.102 38.0781C249.867 38.7031 249.75 39.3359 249.75 39.9766C249.75 40.7891 249.922 41.4844 250.266 42.0625C250.609 42.6406 251.109 43.1953 251.766 43.7266C252.406 44.2578 253.188 44.75 254.109 45.2031C255.422 45.8594 256.461 46.3594 257.227 46.7031C258.742 47.3906 259.906 47.9844 260.719 48.4844C261.734 49.1094 262.609 49.7891 263.344 50.5234C264.078 51.2578 264.633 52.0938 265.008 53.0312C265.398 54 265.594 55.0859 265.594 56.2891C265.594 57.7734 265.328 59.0938 264.797 60.25C264.25 61.4375 263.523 62.4297 262.617 63.2266C261.664 64.0547 260.562 64.6797 259.312 65.1016C258 65.5391 256.648 65.7578 255.258 65.7578C253.836 65.7578 252.539 65.5547 251.367 65.1484C250.227 64.7578 249.203 64.2266 248.297 63.5547C247.391 62.8828 246.625 62.1328 246 61.3047C245.297 60.3828 244.781 59.5312 244.453 58.75Z" stroke="white" stroke-width="2" mask="url(#path-5-outside-1)"/>
<path d="M244.453 58.75L247.828 56.7344C248.078 57.3438 248.453 57.9844 248.953 58.6562C249.453 59.3281 249.984 59.8828 250.547 60.3203C251.172 60.8047 251.875 61.1875 252.656 61.4688C253.469 61.7656 254.32 61.9141 255.211 61.9141C256.008 61.9141 256.781 61.7969 257.531 61.5625C258.281 61.3281 258.945 60.9922 259.523 60.5547C260.117 60.1016 260.586 59.5547 260.93 58.9141C261.273 58.2734 261.445 57.4922 261.445 56.5703C261.445 55.7109 261.281 54.9688 260.953 54.3438C260.641 53.7344 260.188 53.1797 259.594 52.6797C258.969 52.1641 258.273 51.7109 257.508 51.3203L254.93 50.0547C253.633 49.4297 252.539 48.8828 251.648 48.4141C250.523 47.8203 249.531 47.1484 248.672 46.3984C247.75 45.6016 247.031 44.7188 246.516 43.75C245.984 42.75 245.719 41.5703 245.719 40.2109C245.719 39.0547 245.922 37.9453 246.328 36.8828C246.75 35.7734 247.359 34.7891 248.156 33.9297C248.953 33.0703 249.953 32.3672 251.156 31.8203C252.375 31.2734 253.773 31 255.352 31C256.57 31 257.672 31.1484 258.656 31.4453C259.625 31.7422 260.523 32.1328 261.352 32.6172C262.133 33.0703 262.836 33.6016 263.461 34.2109C264.117 34.8359 264.617 35.3984 264.961 35.8984L261.938 38.3359C261.719 38.0078 261.359 37.5938 260.859 37.0938C260.453 36.6875 259.953 36.3125 259.359 35.9688C258.766 35.625 258.148 35.3516 257.508 35.1484C256.852 34.9453 256.133 34.8438 255.352 34.8438C254.43 34.8438 253.625 34.9844 252.938 35.2656C252.25 35.5469 251.664 35.9297 251.18 36.4141C250.695 36.8984 250.336 37.4531 250.102 38.0781C249.867 38.7031 249.75 39.3359 249.75 39.9766C249.75 40.7891 249.922 41.4844 250.266 42.0625C250.609 42.6406 251.109 43.1953 251.766 43.7266C252.406 44.2578 253.188 44.75 254.109 45.2031C255.422 45.8594 256.461 46.3594 257.227 46.7031C258.742 47.3906 259.906 47.9844 260.719 48.4844C261.734 49.1094 262.609 49.7891 263.344 50.5234C264.078 51.2578 264.633 52.0938 265.008 53.0312C265.398 54 265.594 55.0859 265.594 56.2891C265.594 57.7734 265.328 59.0938 264.797 60.25C264.25 61.4375 263.523 62.4297 262.617 63.2266C261.664 64.0547 260.562 64.6797 259.312 65.1016C258 65.5391 256.648 65.7578 255.258 65.7578C253.836 65.7578 252.539 65.5547 251.367 65.1484C250.227 64.7578 249.203 64.2266 248.297 63.5547C247.391 62.8828 246.625 62.1328 246 61.3047C245.297 60.3828 244.781 59.5312 244.453 58.75Z" stroke="black" stroke-width="2" mask="url(#path-5-outside-1)"/>
<path d="M272.016 65.1719V31.5625H276.047V46.0234H292.898V31.5625H296.93V65.1719H292.898V49.8672H276.047V65.1719H272.016Z" stroke="white" stroke-width="2" mask="url(#path-5-outside-1)"/>
<path d="M272.016 65.1719V31.5625H276.047V46.0234H292.898V31.5625H296.93V65.1719H292.898V49.8672H276.047V65.1719H272.016Z" stroke="white" stroke-width="2" mask="url(#path-5-outside-1)"/>
<path d="M272.016 65.1719V31.5625H276.047V46.0234H292.898V31.5625H296.93V65.1719H292.898V49.8672H276.047V65.1719H272.016Z" stroke="black" stroke-width="2" mask="url(#path-5-outside-1)"/>
<path d="M303.891 55.1875C303.078 53.0938 302.672 50.8203 302.672 48.3672C302.672 45.9141 303.078 43.6406 303.891 41.5469C304.719 39.4219 305.859 37.5859 307.312 36.0391C308.797 34.4609 310.555 33.2266 312.586 32.3359C314.617 31.4453 316.844 31 319.266 31C321.703 31 323.938 31.4453 325.969 32.3359C327.969 33.2109 329.719 34.4453 331.219 36.0391C332.703 37.6172 333.852 39.4531 334.664 41.5469C335.477 43.6406 335.883 45.9141 335.883 48.3672C335.883 50.8203 335.477 53.0938 334.664 55.1875C333.836 57.3125 332.688 59.1562 331.219 60.7188C329.75 62.2812 328 63.5078 325.969 64.3984C323.891 65.3047 321.656 65.7578 319.266 65.7578C316.891 65.7578 314.664 65.3047 312.586 64.3984C310.539 63.5078 308.781 62.2812 307.312 60.7188C305.875 59.1875 304.734 57.3438 303.891 55.1875ZM307.875 43.2344C307.281 44.8906 306.984 46.6016 306.984 48.3672C306.984 50.1328 307.281 51.8438 307.875 53.5C308.453 55.1406 309.289 56.5859 310.383 57.8359C311.508 59.1172 312.797 60.1094 314.25 60.8125C315.797 61.5469 317.469 61.9141 319.266 61.9141C321.062 61.9141 322.734 61.5469 324.281 60.8125C325.766 60.1094 327.062 59.1172 328.172 57.8359C329.266 56.5859 330.102 55.1406 330.68 53.5C331.273 51.8438 331.57 50.1328 331.57 48.3672C331.57 46.6016 331.273 44.8906 330.68 43.2344C330.102 41.625 329.266 40.1875 328.172 38.9219C327.062 37.6406 325.766 36.6484 324.281 35.9453C322.734 35.2109 321.062 34.8438 319.266 34.8438C317.469 34.8438 315.797 35.2109 314.25 35.9453C312.797 36.6484 311.508 37.6406 310.383 38.9219C309.289 40.1875 308.453 41.625 307.875 43.2344Z" stroke="white" stroke-width="2" mask="url(#path-5-outside-1)"/>
<path d="M303.891 55.1875C303.078 53.0938 302.672 50.8203 302.672 48.3672C302.672 45.9141 303.078 43.6406 303.891 41.5469C304.719 39.4219 305.859 37.5859 307.312 36.0391C308.797 34.4609 310.555 33.2266 312.586 32.3359C314.617 31.4453 316.844 31 319.266 31C321.703 31 323.938 31.4453 325.969 32.3359C327.969 33.2109 329.719 34.4453 331.219 36.0391C332.703 37.6172 333.852 39.4531 334.664 41.5469C335.477 43.6406 335.883 45.9141 335.883 48.3672C335.883 50.8203 335.477 53.0938 334.664 55.1875C333.836 57.3125 332.688 59.1562 331.219 60.7188C329.75 62.2812 328 63.5078 325.969 64.3984C323.891 65.3047 321.656 65.7578 319.266 65.7578C316.891 65.7578 314.664 65.3047 312.586 64.3984C310.539 63.5078 308.781 62.2812 307.312 60.7188C305.875 59.1875 304.734 57.3438 303.891 55.1875ZM307.875 43.2344C307.281 44.8906 306.984 46.6016 306.984 48.3672C306.984 50.1328 307.281 51.8438 307.875 53.5C308.453 55.1406 309.289 56.5859 310.383 57.8359C311.508 59.1172 312.797 60.1094 314.25 60.8125C315.797 61.5469 317.469 61.9141 319.266 61.9141C321.062 61.9141 322.734 61.5469 324.281 60.8125C325.766 60.1094 327.062 59.1172 328.172 57.8359C329.266 56.5859 330.102 55.1406 330.68 53.5C331.273 51.8438 331.57 50.1328 331.57 48.3672C331.57 46.6016 331.273 44.8906 330.68 43.2344C330.102 41.625 329.266 40.1875 328.172 38.9219C327.062 37.6406 325.766 36.6484 324.281 35.9453C322.734 35.2109 321.062 34.8438 319.266 34.8438C317.469 34.8438 315.797 35.2109 314.25 35.9453C312.797 36.6484 311.508 37.6406 310.383 38.9219C309.289 40.1875 308.453 41.625 307.875 43.2344Z" stroke="white" stroke-width="2" mask="url(#path-5-outside-1)"/>
<path d="M303.891 55.1875C303.078 53.0938 302.672 50.8203 302.672 48.3672C302.672 45.9141 303.078 43.6406 303.891 41.5469C304.719 39.4219 305.859 37.5859 307.312 36.0391C308.797 34.4609 310.555 33.2266 312.586 32.3359C314.617 31.4453 316.844 31 319.266 31C321.703 31 323.938 31.4453 325.969 32.3359C327.969 33.2109 329.719 34.4453 331.219 36.0391C332.703 37.6172 333.852 39.4531 334.664 41.5469C335.477 43.6406 335.883 45.9141 335.883 48.3672C335.883 50.8203 335.477 53.0938 334.664 55.1875C333.836 57.3125 332.688 59.1562 331.219 60.7188C329.75 62.2812 328 63.5078 325.969 64.3984C323.891 65.3047 321.656 65.7578 319.266 65.7578C316.891 65.7578 314.664 65.3047 312.586 64.3984C310.539 63.5078 308.781 62.2812 307.312 60.7188C305.875 59.1875 304.734 57.3438 303.891 55.1875ZM307.875 43.2344C307.281 44.8906 306.984 46.6016 306.984 48.3672C306.984 50.1328 307.281 51.8438 307.875 53.5C308.453 55.1406 309.289 56.5859 310.383 57.8359C311.508 59.1172 312.797 60.1094 314.25 60.8125C315.797 61.5469 317.469 61.9141 319.266 61.9141C321.062 61.9141 322.734 61.5469 324.281 60.8125C325.766 60.1094 327.062 59.1172 328.172 57.8359C329.266 56.5859 330.102 55.1406 330.68 53.5C331.273 51.8438 331.57 50.1328 331.57 48.3672C331.57 46.6016 331.273 44.8906 330.68 43.2344C330.102 41.625 329.266 40.1875 328.172 38.9219C327.062 37.6406 325.766 36.6484 324.281 35.9453C322.734 35.2109 321.062 34.8438 319.266 34.8438C317.469 34.8438 315.797 35.2109 314.25 35.9453C312.797 36.6484 311.508 37.6406 310.383 38.9219C309.289 40.1875 308.453 41.625 307.875 43.2344Z" stroke="black" stroke-width="2" mask="url(#path-5-outside-1)"/>
<path d="M341.625 65.1719V31.5625H350.32C353.82 31.5625 356.609 32.4453 358.688 34.2109C360.75 35.9766 361.781 38.4766 361.781 41.7109C361.781 44.9453 360.75 47.4375 358.688 49.1875C356.609 50.9531 353.82 51.8359 350.32 51.8359H345.656V65.1719H341.625ZM345.656 47.9922H350.062C352.375 47.9922 354.234 47.4766 355.641 46.4453C357.047 45.4141 357.75 43.8359 357.75 41.7109C357.75 39.5703 357.047 37.9844 355.641 36.9531C354.234 35.9219 352.375 35.4062 350.062 35.4062H345.656V47.9922Z" stroke="white" stroke-width="2" mask="url(#path-5-outside-1)"/>
<path d="M341.625 65.1719V31.5625H350.32C353.82 31.5625 356.609 32.4453 358.688 34.2109C360.75 35.9766 361.781 38.4766 361.781 41.7109C361.781 44.9453 360.75 47.4375 358.688 49.1875C356.609 50.9531 353.82 51.8359 350.32 51.8359H345.656V65.1719H341.625ZM345.656 47.9922H350.062C352.375 47.9922 354.234 47.4766 355.641 46.4453C357.047 45.4141 357.75 43.8359 357.75 41.7109C357.75 39.5703 357.047 37.9844 355.641 36.9531C354.234 35.9219 352.375 35.4062 350.062 35.4062H345.656V47.9922Z" stroke="white" stroke-width="2" mask="url(#path-5-outside-1)"/>
<path d="M341.625 65.1719V31.5625H350.32C353.82 31.5625 356.609 32.4453 358.688 34.2109C360.75 35.9766 361.781 38.4766 361.781 41.7109C361.781 44.9453 360.75 47.4375 358.688 49.1875C356.609 50.9531 353.82 51.8359 350.32 51.8359H345.656V65.1719H341.625ZM345.656 47.9922H350.062C352.375 47.9922 354.234 47.4766 355.641 46.4453C357.047 45.4141 357.75 43.8359 357.75 41.7109C357.75 39.5703 357.047 37.9844 355.641 36.9531C354.234 35.9219 352.375 35.4062 350.062 35.4062H345.656V47.9922Z" stroke="black" stroke-width="2" mask="url(#path-5-outside-1)"/>
<path d="M124.688 106.367C124.688 103.914 125.094 101.641 125.906 99.5469C126.734 97.4219 127.875 95.5859 129.328 94.0391C130.812 92.4609 132.57 91.2266 134.602 90.3359C136.633 89.4453 138.859 89 141.281 89C142.828 89 144.195 89.1562 145.383 89.4688C146.586 89.7812 147.711 90.1953 148.758 90.7109C149.789 91.2109 150.68 91.7578 151.43 92.3516C152.148 92.9141 152.781 93.5078 153.328 94.1328L150.562 96.7812C149.594 95.6562 148.305 94.7188 146.695 93.9688C145.086 93.2188 143.32 92.8438 141.398 92.8438C139.555 92.8438 137.859 93.2109 136.312 93.9453C134.828 94.6484 133.531 95.6406 132.422 96.9219C131.297 98.2188 130.453 99.6562 129.891 101.234C129.297 102.891 129 104.602 129 106.367C129 108.133 129.297 109.844 129.891 111.5C130.469 113.109 131.312 114.555 132.422 115.836C133.516 117.102 134.805 118.094 136.289 118.812C137.805 119.547 139.469 119.914 141.281 119.914C142.422 119.914 143.484 119.773 144.469 119.492C145.438 119.211 146.336 118.859 147.164 118.438C148.008 118 148.734 117.523 149.344 117.008C150.062 116.398 150.609 115.875 150.984 115.438L153.727 118.227C153.117 118.883 152.414 119.531 151.617 120.172C150.852 120.781 149.906 121.375 148.781 121.953C147.766 122.469 146.602 122.898 145.289 123.242C143.961 123.586 142.594 123.758 141.188 123.758C138.828 123.758 136.625 123.305 134.578 122.398C132.547 121.508 130.812 120.281 129.375 118.719C127.891 117.109 126.742 115.266 125.93 113.188C125.102 111.062 124.688 108.789 124.688 106.367Z" stroke="white" stroke-width="2" mask="url(#path-5-outside-1)"/>
<path d="M124.688 106.367C124.688 103.914 125.094 101.641 125.906 99.5469C126.734 97.4219 127.875 95.5859 129.328 94.0391C130.812 92.4609 132.57 91.2266 134.602 90.3359C136.633 89.4453 138.859 89 141.281 89C142.828 89 144.195 89.1562 145.383 89.4688C146.586 89.7812 147.711 90.1953 148.758 90.7109C149.789 91.2109 150.68 91.7578 151.43 92.3516C152.148 92.9141 152.781 93.5078 153.328 94.1328L150.562 96.7812C149.594 95.6562 148.305 94.7188 146.695 93.9688C145.086 93.2188 143.32 92.8438 141.398 92.8438C139.555 92.8438 137.859 93.2109 136.312 93.9453C134.828 94.6484 133.531 95.6406 132.422 96.9219C131.297 98.2188 130.453 99.6562 129.891 101.234C129.297 102.891 129 104.602 129 106.367C129 108.133 129.297 109.844 129.891 111.5C130.469 113.109 131.312 114.555 132.422 115.836C133.516 117.102 134.805 118.094 136.289 118.812C137.805 119.547 139.469 119.914 141.281 119.914C142.422 119.914 143.484 119.773 144.469 119.492C145.438 119.211 146.336 118.859 147.164 118.438C148.008 118 148.734 117.523 149.344 117.008C150.062 116.398 150.609 115.875 150.984 115.438L153.727 118.227C153.117 118.883 152.414 119.531 151.617 120.172C150.852 120.781 149.906 121.375 148.781 121.953C147.766 122.469 146.602 122.898 145.289 123.242C143.961 123.586 142.594 123.758 141.188 123.758C138.828 123.758 136.625 123.305 134.578 122.398C132.547 121.508 130.812 120.281 129.375 118.719C127.891 117.109 126.742 115.266 125.93 113.188C125.102 111.062 124.688 108.789 124.688 106.367Z" stroke="white" stroke-width="2" mask="url(#path-5-outside-1)"/>
<path d="M124.688 106.367C124.688 103.914 125.094 101.641 125.906 99.5469C126.734 97.4219 127.875 95.5859 129.328 94.0391C130.812 92.4609 132.57 91.2266 134.602 90.3359C136.633 89.4453 138.859 89 141.281 89C142.828 89 144.195 89.1562 145.383 89.4688C146.586 89.7812 147.711 90.1953 148.758 90.7109C149.789 91.2109 150.68 91.7578 151.43 92.3516C152.148 92.9141 152.781 93.5078 153.328 94.1328L150.562 96.7812C149.594 95.6562 148.305 94.7188 146.695 93.9688C145.086 93.2188 143.32 92.8438 141.398 92.8438C139.555 92.8438 137.859 93.2109 136.312 93.9453C134.828 94.6484 133.531 95.6406 132.422 96.9219C131.297 98.2188 130.453 99.6562 129.891 101.234C129.297 102.891 129 104.602 129 106.367C129 108.133 129.297 109.844 129.891 111.5C130.469 113.109 131.312 114.555 132.422 115.836C133.516 117.102 134.805 118.094 136.289 118.812C137.805 119.547 139.469 119.914 141.281 119.914C142.422 119.914 143.484 119.773 144.469 119.492C145.438 119.211 146.336 118.859 147.164 118.438C148.008 118 148.734 117.523 149.344 117.008C150.062 116.398 150.609 115.875 150.984 115.438L153.727 118.227C153.117 118.883 152.414 119.531 151.617 120.172C150.852 120.781 149.906 121.375 148.781 121.953C147.766 122.469 146.602 122.898 145.289 123.242C143.961 123.586 142.594 123.758 141.188 123.758C138.828 123.758 136.625 123.305 134.578 122.398C132.547 121.508 130.812 120.281 129.375 118.719C127.891 117.109 126.742 115.266 125.93 113.188C125.102 111.062 124.688 108.789 124.688 106.367Z" stroke="black" stroke-width="2" mask="url(#path-5-outside-1)"/>
<path d="M155.062 123.172L168.281 89.5625H172.008L185.109 123.172H180.891L177.398 114.102H162.891L159.398 123.172H155.062ZM164.391 110.258H175.898L170.133 95.3281L164.391 110.258Z" stroke="white" stroke-width="2" mask="url(#path-5-outside-1)"/>
<path d="M155.062 123.172L168.281 89.5625H172.008L185.109 123.172H180.891L177.398 114.102H162.891L159.398 123.172H155.062ZM164.391 110.258H175.898L170.133 95.3281L164.391 110.258Z" stroke="white" stroke-width="2" mask="url(#path-5-outside-1)"/>
<path d="M155.062 123.172L168.281 89.5625H172.008L185.109 123.172H180.891L177.398 114.102H162.891L159.398 123.172H155.062ZM164.391 110.258H175.898L170.133 95.3281L164.391 110.258Z" stroke="black" stroke-width="2" mask="url(#path-5-outside-1)"/>
<path d="M189.422 123.172V89.5625H193.453V119.328H208.523V123.172H189.422Z" stroke="white" stroke-width="2" mask="url(#path-5-outside-1)"/>
<path d="M189.422 123.172V89.5625H193.453V119.328H208.523V123.172H189.422Z" stroke="white" stroke-width="2" mask="url(#path-5-outside-1)"/>
<path d="M189.422 123.172V89.5625H193.453V119.328H208.523V123.172H189.422Z" stroke="black" stroke-width="2" mask="url(#path-5-outside-1)"/>
<path d="M212.859 123.172V89.5625H232.242V93.4062H216.891V104.023H231.094V107.867H216.891V119.328H232.547V123.172H212.859Z" stroke="white" stroke-width="2" mask="url(#path-5-outside-1)"/>
<path d="M212.859 123.172V89.5625H232.242V93.4062H216.891V104.023H231.094V107.867H216.891V119.328H232.547V123.172H212.859Z" stroke="white" stroke-width="2" mask="url(#path-5-outside-1)"/>
<path d="M212.859 123.172V89.5625H232.242V93.4062H216.891V104.023H231.094V107.867H216.891V119.328H232.547V123.172H212.859Z" stroke="black" stroke-width="2" mask="url(#path-5-outside-1)"/>
<path d="M238.969 123.172V89.5625H243.141L261.141 116.445V89.5625H265.172V123.172H261L243 96.2891V123.172H238.969Z" stroke="white" stroke-width="2" mask="url(#path-5-outside-1)"/>
<path d="M238.969 123.172V89.5625H243.141L261.141 116.445V89.5625H265.172V123.172H261L243 96.2891V123.172H238.969Z" stroke="white" stroke-width="2" mask="url(#path-5-outside-1)"/>
<path d="M238.969 123.172V89.5625H243.141L261.141 116.445V89.5625H265.172V123.172H261L243 96.2891V123.172H238.969Z" stroke="black" stroke-width="2" mask="url(#path-5-outside-1)"/>
<path d="M273.047 123.172V89.5625H282.703C285.266 89.5625 287.594 89.9922 289.688 90.8516C291.719 91.6797 293.461 92.8438 294.914 94.3438C296.32 95.7969 297.406 97.5625 298.172 99.6406C298.922 101.672 299.297 103.914 299.297 106.367C299.297 108.82 298.922 111.062 298.172 113.094C297.406 115.172 296.32 116.938 294.914 118.391C293.445 119.906 291.703 121.078 289.688 121.906C287.625 122.75 285.297 123.172 282.703 123.172H273.047ZM277.078 119.328H282.445C284.523 119.328 286.336 118.992 287.883 118.32C289.477 117.633 290.789 116.703 291.82 115.531C292.852 114.359 293.641 112.984 294.188 111.406C294.719 109.859 294.984 108.18 294.984 106.367C294.984 104.555 294.719 102.875 294.188 101.328C293.641 99.75 292.852 98.375 291.82 97.2031C290.789 96.0312 289.477 95.1016 287.883 94.4141C286.336 93.7422 284.523 93.4062 282.445 93.4062H277.078V119.328Z" stroke="white" stroke-width="2" mask="url(#path-5-outside-1)"/>
<path d="M273.047 123.172V89.5625H282.703C285.266 89.5625 287.594 89.9922 289.688 90.8516C291.719 91.6797 293.461 92.8438 294.914 94.3438C296.32 95.7969 297.406 97.5625 298.172 99.6406C298.922 101.672 299.297 103.914 299.297 106.367C299.297 108.82 298.922 111.062 298.172 113.094C297.406 115.172 296.32 116.938 294.914 118.391C293.445 119.906 291.703 121.078 289.688 121.906C287.625 122.75 285.297 123.172 282.703 123.172H273.047ZM277.078 119.328H282.445C284.523 119.328 286.336 118.992 287.883 118.32C289.477 117.633 290.789 116.703 291.82 115.531C292.852 114.359 293.641 112.984 294.188 111.406C294.719 109.859 294.984 108.18 294.984 106.367C294.984 104.555 294.719 102.875 294.188 101.328C293.641 99.75 292.852 98.375 291.82 97.2031C290.789 96.0312 289.477 95.1016 287.883 94.4141C286.336 93.7422 284.523 93.4062 282.445 93.4062H277.078V119.328Z" stroke="white" stroke-width="2" mask="url(#path-5-outside-1)"/>
<path d="M273.047 123.172V89.5625H282.703C285.266 89.5625 287.594 89.9922 289.688 90.8516C291.719 91.6797 293.461 92.8438 294.914 94.3438C296.32 95.7969 297.406 97.5625 298.172 99.6406C298.922 101.672 299.297 103.914 299.297 106.367C299.297 108.82 298.922 111.062 298.172 113.094C297.406 115.172 296.32 116.938 294.914 118.391C293.445 119.906 291.703 121.078 289.688 121.906C287.625 122.75 285.297 123.172 282.703 123.172H273.047ZM277.078 119.328H282.445C284.523 119.328 286.336 118.992 287.883 118.32C289.477 117.633 290.789 116.703 291.82 115.531C292.852 114.359 293.641 112.984 294.188 111.406C294.719 109.859 294.984 108.18 294.984 106.367C294.984 104.555 294.719 102.875 294.188 101.328C293.641 99.75 292.852 98.375 291.82 97.2031C290.789 96.0312 289.477 95.1016 287.883 94.4141C286.336 93.7422 284.523 93.4062 282.445 93.4062H277.078V119.328Z" stroke="black" stroke-width="2" mask="url(#path-5-outside-1)"/>
<path d="M301.5 123.172L314.719 89.5625H318.445L331.547 123.172H327.328L323.836 114.102H309.328L305.836 123.172H301.5ZM310.828 110.258H322.336L316.57 95.3281L310.828 110.258Z" stroke="white" stroke-width="2" mask="url(#path-5-outside-1)"/>
<path d="M301.5 123.172L314.719 89.5625H318.445L331.547 123.172H327.328L323.836 114.102H309.328L305.836 123.172H301.5ZM310.828 110.258H322.336L316.57 95.3281L310.828 110.258Z" stroke="white" stroke-width="2" mask="url(#path-5-outside-1)"/>
<path d="M301.5 123.172L314.719 89.5625H318.445L331.547 123.172H327.328L323.836 114.102H309.328L305.836 123.172H301.5ZM310.828 110.258H322.336L316.57 95.3281L310.828 110.258Z" stroke="black" stroke-width="2" mask="url(#path-5-outside-1)"/>
<path d="M335.859 123.172V89.5625H344.602C346.242 89.5625 347.758 89.7969 349.148 90.2656C350.57 90.75 351.758 91.4219 352.711 92.2812C353.727 93.2031 354.492 94.2578 355.008 95.4453C355.555 96.7109 355.828 98.0938 355.828 99.5938C355.828 101.547 355.445 103.141 354.68 104.375C353.898 105.625 353.023 106.586 352.055 107.258C351.023 107.977 350.094 108.453 349.266 108.688C348.359 108.953 347.812 109.094 347.625 109.109L356.93 123.172H352.078L343.008 109.438H339.891V123.172H335.859ZM339.891 105.594H344.836C347.102 105.594 348.828 105.047 350.016 103.953C351.203 102.859 351.797 101.375 351.797 99.5C351.797 97.6406 351.203 96.1641 350.016 95.0703C348.812 93.9609 347.086 93.4062 344.836 93.4062H339.891V105.594Z" stroke="white" stroke-width="2" mask="url(#path-5-outside-1)"/>
<path d="M335.859 123.172V89.5625H344.602C346.242 89.5625 347.758 89.7969 349.148 90.2656C350.57 90.75 351.758 91.4219 352.711 92.2812C353.727 93.2031 354.492 94.2578 355.008 95.4453C355.555 96.7109 355.828 98.0938 355.828 99.5938C355.828 101.547 355.445 103.141 354.68 104.375C353.898 105.625 353.023 106.586 352.055 107.258C351.023 107.977 350.094 108.453 349.266 108.688C348.359 108.953 347.812 109.094 347.625 109.109L356.93 123.172H352.078L343.008 109.438H339.891V123.172H335.859ZM339.891 105.594H344.836C347.102 105.594 348.828 105.047 350.016 103.953C351.203 102.859 351.797 101.375 351.797 99.5C351.797 97.6406 351.203 96.1641 350.016 95.0703C348.812 93.9609 347.086 93.4062 344.836 93.4062H339.891V105.594Z" stroke="white" stroke-width="2" mask="url(#path-5-outside-1)"/>
<path d="M335.859 123.172V89.5625H344.602C346.242 89.5625 347.758 89.7969 349.148 90.2656C350.57 90.75 351.758 91.4219 352.711 92.2812C353.727 93.2031 354.492 94.2578 355.008 95.4453C355.555 96.7109 355.828 98.0938 355.828 99.5938C355.828 101.547 355.445 103.141 354.68 104.375C353.898 105.625 353.023 106.586 352.055 107.258C351.023 107.977 350.094 108.453 349.266 108.688C348.359 108.953 347.812 109.094 347.625 109.109L356.93 123.172H352.078L343.008 109.438H339.891V123.172H335.859ZM339.891 105.594H344.836C347.102 105.594 348.828 105.047 350.016 103.953C351.203 102.859 351.797 101.375 351.797 99.5C351.797 97.6406 351.203 96.1641 350.016 95.0703C348.812 93.9609 347.086 93.4062 344.836 93.4062H339.891V105.594Z" stroke="black" stroke-width="2" mask="url(#path-5-outside-1)"/>
</svg>
